<?xml version="1.0" encoding="UTF-8"?>
<svg version="1.1" xmlns="http://www.w3.org/2000/svg" width="512" height="512">
<path d="M0 0 C2.0296891 0.87725707 4.05145846 1.7729878 6.06640625 2.68359375 C7.16299561 3.16521973 8.25958496 3.6468457 9.3894043 4.14306641 C11.80729007 5.20671532 14.22175338 6.27634795 16.63378906 7.35302734 C20.2036009 8.94078874 23.79124884 10.48435583 27.38407898 12.01921082 C30.47867619 13.34216738 33.56855449 14.67591949 36.65774536 16.01144409 C38.17164542 16.66419476 39.68699713 17.31358965 41.2038269 17.95950317 C43.34680456 18.87426765 45.48250823 19.80434519 47.6171875 20.73828125 C48.25260468 21.00570633 48.88802185 21.27313141 49.54269409 21.54866028 C53.76556168 23.42066083 56.54335119 25.71115895 59.62890625 29.12109375 C60.33015625 29.84296875 61.03140625 30.56484375 61.75390625 31.30859375 C67.42261953 39.81166367 68.33225882 51.85933525 70.31640625 61.74609375 C70.63955023 63.3386277 70.9631147 64.9310764 71.28710938 66.5234375 C72.07255721 70.3883575 72.8523141 74.25438505 73.62890625 78.12109375 C74.46303303 78.12169084 75.29715981 78.12228793 76.15656316 78.12290311 C125.59189187 78.15879575 175.02715971 78.21543274 224.46243199 78.2990147 C230.39796874 78.30903218 236.33350576 78.31887631 242.26904297 78.32861328 C244.04153349 78.33152534 244.04153349 78.33152534 245.84983189 78.33449623 C264.98399174 78.36551871 284.1181396 78.38249758 303.25231986 78.39428797 C322.88523783 78.40669823 342.51809283 78.43419685 362.15097106 78.47570682 C374.26585208 78.50084572 386.38062869 78.51421074 398.49553616 78.51252332 C406.80278332 78.51249357 415.1099241 78.52711761 423.4171298 78.55325803 C428.21021584 78.56790799 433.00308374 78.57610341 437.79618835 78.56689644 C442.18731609 78.55860438 446.57800569 78.56877844 450.96906848 78.59343037 C452.55469058 78.59911014 454.14035426 78.59810449 455.72596376 78.5896062 C465.52155566 78.54161793 474.4172425 78.83679958 482.28515625 85.3046875 C482.89359375 86.04847656 483.50203125 86.79226562 484.12890625 87.55859375 C484.75796875 88.29980469 485.38703125 89.04101562 486.03515625 89.8046875 C492.03305689 98.52222446 490.17131762 110.06955254 488.39628601 119.9563446 C487.83926452 122.78089485 487.24505409 125.59669461 486.6472168 128.4128418 C486.32570532 129.98151311 486.0054927 131.5504511 485.6864624 133.11962891 C484.82559221 137.33504431 483.94666213 141.54650076 483.0640409 145.7574079 C482.13815128 150.18987396 481.22886761 154.62574668 480.31758118 159.06123352 C478.78629322 166.50289999 477.24430428 173.94227891 475.69458008 181.38012695 C473.51573878 191.83751277 471.3567858 202.29893161 469.20158327 212.7612108 C467.51854781 220.92756066 465.8299039 229.09275226 464.140625 237.2578125 C463.96114563 238.12569389 463.78166625 238.99357528 463.59674811 239.88775611 C462.56093424 244.89504564 461.52228943 249.90173302 460.47947693 254.90756989 C460.16545908 256.41656109 459.85223565 257.92571788 459.53991127 259.4350605 C458.1306883 266.2420475 456.69197806 273.04178746 455.09016418 279.80647278 C454.87403882 280.71943524 454.65791346 281.63239771 454.43523884 282.5730257 C452.33393899 289.21328193 448.23138082 294.25322511 442.53515625 298.1484375 C438.08279571 300.42023622 433.94680754 301.37114777 428.97114754 301.36718941 C427.30732369 301.37316255 427.30732369 301.37316255 425.60988724 301.37925637 C424.40171558 301.37343068 423.19354391 301.367605 421.94876099 301.36160278 C420.65731544 301.36331163 419.3658699 301.36502048 418.03528965 301.36678112 C414.45730492 301.3712478 410.8794402 301.36326033 407.30147076 301.35322499 C403.44059953 301.344583 399.57973499 301.34751118 395.71885681 301.34902954 C389.03182499 301.35007792 382.34483221 301.34380625 375.65781021 301.33255386 C365.98952066 301.31629543 356.32124998 301.3110905 346.65294825 301.30857788 C330.96653813 301.30420132 315.28014882 301.29089326 299.59375 301.27197266 C284.35644637 301.25361286 269.1191484 301.23945684 253.88183594 301.23095703 C252.94250867 301.23043158 252.00318141 301.22990614 251.03538968 301.22936477 C246.32303107 301.22675468 241.61067243 301.22422727 236.89831376 301.22174096 C197.80849597 301.20100967 158.71870409 301.16523451 119.62890625 301.12109375 C121.93890625 312.34109375 124.24890625 323.56109375 126.62890625 335.12109375 C132.34384651 335.12989311 132.34384651 335.12989311 138.17424011 335.13887024 C173.09592307 335.19402221 208.01755125 335.26396454 242.93917204 335.35008003 C247.51421663 335.36134847 252.08926153 335.37248688 256.66430664 335.38354492 C257.57513259 335.38574861 258.48595855 335.38795229 259.42438529 335.39022275 C274.1808452 335.42561479 288.93730506 335.45046816 303.69379171 335.47144077 C318.83036599 335.49318764 333.96688509 335.52622744 349.10341245 335.56979531 C358.44676374 335.59633125 367.79004626 335.6140123 377.13343338 335.62043979 C383.53672848 335.62568774 389.93993697 335.6418847 396.34318569 335.66675941 C400.0399588 335.68079481 403.73657679 335.68993765 407.43337822 335.68610191 C411.43863573 335.68207206 415.44345144 335.70106466 419.44865417 335.72236633 C420.6208292 335.71751876 421.79300422 335.71267118 423.0006997 335.70767671 C424.07309059 335.71713325 425.14548149 335.72658979 426.25036907 335.73633289 C427.17498808 335.7382315 428.09960708 335.7401301 429.05224484 335.74208623 C433.10822789 336.33869084 435.76416381 338.13707649 438.44140625 341.18359375 C440.20786525 345.5532555 440.53731786 349.48531071 439.62890625 354.12109375 C437.35045626 358.09763382 434.99900046 360.66439568 430.62890625 362.12109375 C428.90338766 362.21571531 427.17441884 362.25200963 425.446311 362.25531483 C423.82682282 362.26200159 423.82682282 362.26200159 422.17461771 362.26882344 C420.98398346 362.26863908 419.79334921 362.26845472 418.56663513 362.26826477 C416.67452186 362.2737798 416.67452186 362.2737798 414.74418408 362.27940625 C411.23577879 362.2894298 407.72739062 362.29314362 404.21897304 362.29579556 C400.43760569 362.29969765 396.65625189 362.30927616 392.87489319 362.31800842 C383.73845842 362.33777714 374.60202254 362.34784027 365.46557173 362.35673621 C361.16279296 362.36111907 356.86001542 362.36648595 352.55723763 362.37172508 C338.2527247 362.38873895 323.94821255 362.40323248 309.64369106 362.41047382 C305.93099911 362.41238372 302.21830716 362.41430405 298.50561523 362.41625977 C297.58284426 362.41674351 296.66007329 362.41722725 295.70933957 362.41772565 C280.76563842 362.42602349 265.82201738 362.45135553 250.8783512 362.48384044 C235.53489795 362.51692233 220.19148539 362.53492367 204.84799629 362.53811806 C196.23369605 362.54028228 187.61951258 362.54901785 179.00524712 362.57457924 C171.66770759 362.5963018 164.33031319 362.60432909 156.99274515 362.59461246 C153.25070458 362.59007202 149.50896335 362.59193862 145.76696396 362.6113739 C141.70445377 362.632291 137.64260547 362.62200652 133.58006287 362.60884094 C131.81753407 362.62529481 131.81753407 362.62529481 130.01939863 362.64208108 C121.75030887 362.57745285 114.68646484 361.22926829 108.0078125 356.11328125 C107.40839844 355.41460937 106.80898437 354.7159375 106.19140625 353.99609375 C105.57394531 353.31289063 104.95648438 352.6296875 104.3203125 351.92578125 C99.8304297 344.48066381 98.66580654 335.07844116 96.96289062 326.66235352 C96.71268001 325.44469614 96.46246939 324.22703876 96.20467663 322.97248268 C95.51771782 319.6249537 94.83480961 316.2766457 94.15361571 312.92794204 C93.41837581 309.31888473 92.67773137 305.71093644 91.93769836 302.1028595 C90.66237618 295.88146953 89.39021608 289.65944015 88.12026978 283.43695068 C86.11933095 273.63300867 84.11238057 263.83030276 82.10424805 254.02783203 C81.42111181 250.69293531 80.73799823 247.35803394 80.05488586 244.02313232 C79.79967919 242.77728945 79.79967919 242.77728945 79.53931683 241.50627804 C78.49731352 236.41925292 77.45585697 231.3321162 76.41483015 226.24489117 C71.70221449 203.21559054 66.97090247 180.19021979 62.21892977 157.16900802 C61.74465992 154.8713529 61.27045878 152.57368362 60.79627609 150.27601051 C57.94941678 136.4817418 55.10111946 122.68777062 52.2505334 108.89427155 C51.01276808 102.90443492 49.77649675 96.91429072 48.54070091 90.92404747 C48.03872392 88.49221427 47.53622345 86.06048906 47.03313637 83.62888527 C44.45058029 71.14614798 41.90636472 58.66359959 39.62890625 46.12109375 C38.80317863 45.85858574 38.80317863 45.85858574 37.96076965 45.59077454 C32.53770747 43.83031885 27.3041202 41.81379477 22.078125 39.5390625 C21.29806595 39.20240067 20.5180069 38.86573883 19.71430969 38.51887512 C18.07575409 37.81056033 16.43800028 37.10038806 14.80102539 36.38842773 C12.33513054 35.31673146 9.86603972 34.25268266 7.39648438 33.18945312 C2.79207297 31.20028021 -1.7967271 29.17841645 -6.37109375 27.12109375 C-7.0040033 26.83671448 -7.63691284 26.55233521 -8.28900146 26.25933838 C-9.96347323 25.49705788 -11.62673043 24.71027805 -13.2890625 23.921875 C-14.18778076 23.49688721 -15.08649902 23.07189941 -16.01245117 22.6340332 C-18.83423949 20.82401124 -20.47803076 18.87407663 -22.37109375 16.12109375 C-23.35752956 11.07286341 -23.18284101 6.54165145 -20.62109375 2.05859375 C-14.21481835 -3.45792118 -7.59480191 -2.98218157 0 0 Z M78.62890625 105.12109375 C82.64290415 126.06467816 82.64290415 126.06467816 86.84277344 146.96850586 C87.12773339 148.35659068 87.41255384 149.74470414 87.69725037 151.13284302 C88.44960422 154.79905795 89.2039692 158.46485595 89.95888805 162.13054347 C90.59352217 165.21322476 91.22707252 168.29612841 91.86063409 171.37903029 C93.35271894 178.63946505 94.846436 185.89956257 96.34130859 193.15942383 C97.88007291 200.63256577 99.41625272 208.10623573 100.95118403 215.5801658 C102.27818393 222.04125722 103.60660626 228.50205499 104.93621373 234.9626103 C105.72669337 238.80357277 106.5166677 242.64463729 107.30532074 246.48597527 C108.04243746 250.07592318 108.7813336 253.66550023 109.52162361 257.25479507 C109.92219102 259.19914731 110.32094494 261.14387287 110.71965027 263.08860779 C110.9578096 264.24155334 111.19596893 265.3944989 111.44134521 266.5823822 C111.6477853 267.58563003 111.85422539 268.58887785 112.06692123 269.62252712 C112.60958568 272.23036588 112.60958568 272.23036588 113.62890625 275.12109375 C217.57890625 275.12109375 321.52890625 275.12109375 428.62890625 275.12109375 C431.26192206 264.58903053 433.7607103 254.11537729 435.92871094 243.4909668 C436.23443243 242.00575016 436.54044642 240.5205937 436.84672546 239.03549194 C437.66573883 235.05973644 438.48051632 231.08312459 439.29428387 227.10629249 C440.15029568 222.92595878 441.00977675 218.74633813 441.86871338 214.56660461 C443.30667011 207.56646564 444.74182441 200.5657566 446.17529297 193.56469727 C447.8324433 185.47136607 449.49421155 177.37899322 451.15836596 169.28709954 C452.76396438 161.47935305 454.36623828 153.67092787 455.96701813 145.86219215 C456.64693269 142.54584028 457.32803367 139.22973535 458.01009369 135.91382408 C458.81062881 132.02121007 459.60826392 128.128013 460.40363503 124.23434067 C460.69609336 122.80503765 460.98956166 121.37594088 461.28410149 119.94706535 C461.68511092 118.00084894 462.0821369 116.05381301 462.47894287 114.10673523 C462.70235226 113.01675578 462.92576164 111.92677633 463.15594101 110.8037672 C463.71571922 108.08269577 463.71571922 108.08269577 463.62890625 105.12109375 C336.57890625 105.12109375 209.52890625 105.12109375 78.62890625 105.12109375 Z " fill="#000000" transform="translate(22.37109375,20.87890625)"/>
<path d="M0 0 C9.079095 8.51275769 13.84318183 19.28979781 14.33422852 31.65551758 C14.59506198 45.0548608 10.51922513 55.62298209 1.625 65.6875 C-10.65569735 76.50620957 -21.53148249 79.84377866 -37.76904297 79.17919922 C-49.07237554 78.27127121 -58.80430329 71.9010132 -66.4375 63.84375 C-75.18116693 53.52622302 -77.86128276 41.28608412 -77 28 C-75.74733948 19.5816967 -72.82703134 12.96379721 -68 6 C-67.38125 5.0925 -66.7625 4.185 -66.125 3.25 C-48.07694488 -15.85970543 -19.92346692 -16.65397492 0 0 Z M-46.5546875 21.2734375 C-50.15497938 25.57432671 -51.30565911 30.01179337 -50.9375 35.5625 C-50.02370418 41.26144167 -47.79206681 45.29983406 -43.5625 49.3125 C-37.89625303 53.04393093 -32.72797617 54.00356418 -26 53 C-19.92734531 50.48789327 -15.86247028 46.44557002 -12.75 40.6875 C-11.00132329 34.42140847 -11.52529364 29.49353437 -14.6796875 23.890625 C-17.98458192 19.15817263 -21.7893086 16.04594517 -27.375 14.4375 C-34.80890413 13.21115867 -41.19490365 16.21280438 -46.5546875 21.2734375 Z " fill="#000000" transform="translate(404,414)"/>
<path d="M0 0 C9.079095 8.51275769 13.84318183 19.28979781 14.33422852 31.65551758 C14.59499571 45.05145646 10.55385361 55.79076102 1.5 65.75 C0.675 66.4925 -0.15 67.235 -1 68 C-1.86625 68.825 -2.7325 69.65 -3.625 70.5 C-14.13373691 79.14781475 -27.00806836 80.0435629 -40 79 C-51.82402293 76.71358673 -62.44622801 69.87428954 -69.40234375 60.01171875 C-76.57577377 48.0850737 -78.76497064 35.42498209 -75.875 21.875 C-74.22727484 15.91663841 -71.50520968 11.05684916 -68 6 C-67.38125 5.0925 -66.7625 4.185 -66.125 3.25 C-48.13966052 -15.79330062 -19.85408231 -16.5959765 0 0 Z M-46.5546875 21.2734375 C-50.15497938 25.57432671 -51.30565911 30.01179337 -50.9375 35.5625 C-49.91550389 41.81281307 -47.54502568 46.09564696 -42.4375 49.875 C-37.26147268 53.35642594 -32.09724149 53.80393258 -26 53 C-19.926935 50.50662919 -15.85691643 46.43529539 -12.75 40.6875 C-11.00132329 34.42140847 -11.52529364 29.49353437 -14.6796875 23.890625 C-17.98458192 19.15817263 -21.7893086 16.04594517 -27.375 14.4375 C-34.80890413 13.21115867 -41.19490365 16.21280438 -46.5546875 21.2734375 Z " fill="#000000" transform="translate(246,414)"/>
<path d="M0 0 C1.13112718 -0.00679667 1.13112718 -0.00679667 2.28510541 -0.01373065 C4.80757977 -0.02637345 7.32983819 -0.02475436 9.8523407 -0.02310181 C11.66273781 -0.02908716 13.47313236 -0.03589272 15.28352356 -0.04345703 C20.19891078 -0.06112415 25.11422835 -0.06581273 30.02964425 -0.0670886 C33.10170163 -0.06851042 36.17374131 -0.07278062 39.2457943 -0.07808304 C49.96637979 -0.09658607 60.68691555 -0.10475336 71.40751648 -0.10317993 C81.39535055 -0.10197864 91.38296848 -0.12307783 101.37074786 -0.15466726 C109.95010624 -0.18083362 118.52939404 -0.19154707 127.10879201 -0.19026911 C132.23093367 -0.18975956 137.35288326 -0.19543899 142.47498512 -0.21662521 C147.29397181 -0.23601345 152.11258335 -0.23612801 156.9315834 -0.22159195 C158.69720827 -0.21950344 160.46285664 -0.22420725 162.22844124 -0.23631287 C178.92443388 -0.34334567 178.92443388 -0.34334567 185.429245 4.26742554 C188.11513005 7.76721515 188.65326947 10.46760103 188.429245 14.76742554 C187.70907492 19.55777031 185.86065644 21.91970706 182.429245 25.26742554 C179.4195581 26.77226898 176.31736124 26.41543106 173.01597595 26.41459656 C171.85595035 26.42011159 171.85595035 26.42011159 170.67248988 26.42573804 C168.06698757 26.436799 165.46152511 26.44062279 162.85600281 26.44442749 C160.99354423 26.45069033 159.13108692 26.45733697 157.26863098 26.46434021 C152.19826467 26.48176681 147.12790781 26.49230652 142.05751896 26.50054574 C138.89119108 26.50569245 135.72486615 26.51176833 132.55854034 26.51805687 C122.65616065 26.5371137 112.75378845 26.55134371 102.85139394 26.55966884 C91.41280412 26.56944364 79.9744077 26.59576749 68.53588605 26.63616973 C59.7001546 26.6663098 50.86447865 26.68113572 42.02869678 26.68444985 C36.74895072 26.68680278 31.46941116 26.69579469 26.18972015 26.72091103 C21.22223875 26.74415978 16.25510025 26.74843783 11.28757858 26.73814964 C9.46467067 26.73765339 7.64174607 26.7440001 5.81888962 26.75770569 C3.32899723 26.77537848 0.84034157 26.76834181 -1.64955139 26.75517273 C-2.36999028 26.76614198 -3.09042917 26.77711122 -3.83269954 26.78841287 C-8.85918079 26.72428205 -11.708391 25.43526527 -15.570755 22.26742554 C-18.54937192 17.79950016 -18.30385023 13.50381998 -17.570755 8.26742554 C-15.96175139 4.88984771 -13.7180083 2.85893081 -10.36814594 1.13179588 C-6.88025807 0.05406777 -3.61314892 -0.01599113 0 0 Z " fill="#000000" transform="translate(208.5707550048828,164.73257446289063)"/>
<path d="M0 0 C0.69762062 -0.00765109 1.39524123 -0.01530219 2.11400187 -0.02318513 C4.44558301 -0.04378046 6.77617311 -0.03587459 9.1078186 -0.02792358 C10.78191538 -0.03662032 12.45600419 -0.04698747 14.13008118 -0.05889893 C18.67358837 -0.0856767 23.21676281 -0.08683658 27.76033354 -0.08177233 C31.55504808 -0.07963251 35.34969534 -0.08940071 39.14439547 -0.09898317 C48.09823746 -0.12117318 57.05191164 -0.12204883 66.00576782 -0.10995483 C75.23827989 -0.09787603 84.4701823 -0.12249457 93.70259035 -0.16509497 C101.63313536 -0.20034074 109.56348645 -0.21232753 117.49410689 -0.20581949 C122.2289809 -0.20219524 126.96342011 -0.20745046 131.69822311 -0.23524857 C136.15216203 -0.26041915 140.6051518 -0.25650642 145.05907631 -0.23042679 C146.69127665 -0.22569871 148.32354392 -0.23115277 149.9556675 -0.24767303 C163.81440117 -0.37780699 163.81440117 -0.37780699 168.41729736 3.38043213 C171.16359466 6.26888639 171.88274013 8.78018605 172.26651001 12.77139282 C171.90706201 17.08476877 171.04138482 20.39532911 167.95401001 23.52139282 C163.05478405 25.96405054 159.48639805 26.89708259 153.93325806 26.90234375 C153.26251346 26.90702372 152.59176886 26.91170369 151.90069866 26.91652548 C149.67216911 26.92841052 147.44426195 26.91904434 145.21572876 26.90957642 C143.61030725 26.91364502 142.00488853 26.91898853 140.3994751 26.92550659 C136.05238061 26.93915164 131.70550036 26.9338932 127.35840225 26.92436934 C122.80261928 26.91675815 118.24685428 26.9238224 113.69107056 26.92852783 C106.04137896 26.93398114 98.39177433 26.92680493 90.74209595 26.9125061 C81.90619912 26.8961804 73.07050998 26.90146921 64.23461819 26.91798532 C56.639508 26.9316123 49.04446024 26.93351392 41.44934177 26.92566931 C36.91695821 26.92099946 32.38467217 26.920349 27.85229492 26.93027878 C23.59061364 26.93896382 19.32919937 26.93289855 15.06754684 26.91559601 C13.50630511 26.91163937 11.94504079 26.91275111 10.38380814 26.919384 C8.24715911 26.92762257 6.11135748 26.91725137 3.97476196 26.90234375 C2.18398979 26.90064713 2.18398979 26.90064713 0.35704041 26.89891624 C-4.70157248 26.33772677 -8.6163615 24.83815591 -12.42098999 21.33389282 C-14.51129252 17.71606152 -15.25100892 14.69557824 -15.04598999 10.52139282 C-12.39313936 2.85760212 -7.94229866 0.02614342 0 0 Z " fill="#000000" transform="translate(215.04598999023438,230.47860717773438)"/>
</svg>
