<svg xmlns="http://www.w3.org/2000/svg" width="512" height="512"><path d="M22.371 20.879c2.03.877 4.052 1.773 6.067 2.683l3.322 1.46c2.418 1.064 4.833 2.133 7.245 3.21a793.48 793.48 0 0010.75 4.666c3.095 1.323 6.185 2.657 9.274 3.992 1.514.653 3.03 1.302 4.546 1.948a779.51 779.51 0 016.413 2.78l1.926.81C76.137 44.3 78.914 46.59 82 50l2.125 2.188c5.669 8.503 6.578 20.55 8.563 30.437l.97 4.777C94.444 91.267 95.223 95.133 96 99l2.528.002a153735.663 153735.663 0 01166.112.206l3.58.005c19.135.031 38.27.048 57.403.06 19.633.013 39.266.04 58.9.082 12.114.025 24.229.038 36.344.036 8.307 0 16.614.015 24.921.041 4.793.015 9.586.023 14.38.014 4.39-.008 8.781.002 13.172.026a532 532 0 004.757-.003c9.796-.048 18.691.247 26.56 6.715l1.843 2.254c.63.74 1.258 1.482 1.906 2.246 5.998 8.717 4.136 20.264 2.361 30.151a596.507 596.507 0 01-1.749 8.457 2499.863 2499.863 0 01-3.583 17.345c-.926 4.432-1.835 8.868-2.746 13.303a9197.626 9197.626 0 01-4.623 22.319 14180.26 14180.26 0 00-6.493 31.381 32714.95 32714.95 0 01-5.061 24.497c-.18.868-.36 1.735-.544 2.63-1.036 5.007-2.075 10.014-3.117 15.02-.314 1.508-.628 3.018-.94 4.527-1.41 6.807-2.848 13.607-4.45 20.371l-.655 2.767c-2.101 6.64-6.204 11.68-11.9 15.575-4.452 2.272-8.588 3.223-13.564 3.22l-3.361.011-3.661-.017-3.914.005c-3.578.004-7.155-.004-10.733-.014-3.861-.009-7.722-.006-11.583-.004-6.687.001-13.374-.005-20.061-.017-9.668-.016-19.337-.021-29.005-.024-15.686-.004-31.373-.017-47.06-.036a70641.72 70641.72 0 00-45.711-.041l-2.847-.002-14.137-.007c-39.09-.021-78.18-.057-117.269-.101l7 34 11.545.018a118157.475 118157.475 0 01118.49.244l2.76.007c14.757.036 29.513.06 44.27.081 15.136.022 30.273.055 45.41.099 9.343.026 18.686.044 28.03.05 6.403.006 12.806.022 19.21.047 3.696.014 7.393.023 11.09.019 4.005-.004 8.01.015 12.015.036l3.552-.014 3.25.028 2.801.006c4.056.597 6.712 2.395 9.39 5.442 1.766 4.37 2.095 8.301 1.187 12.937-2.278 3.977-4.63 6.543-9 8-1.726.095-3.454.13-5.183.134l-3.271.014h-3.608l-3.823.01c-3.508.01-7.017.014-10.525.017-3.781.004-7.563.013-11.344.022-9.136.02-18.273.03-27.41.039l-12.908.015a62814.622 62814.622 0 01-54.051.044l-2.797.002c-14.943.008-29.887.033-44.83.066-15.344.033-30.687.05-46.03.054-8.615.002-17.23.01-25.844.036-7.337.022-14.675.03-22.012.02a1752.03 1752.03 0 00-11.226.017c-4.062.021-8.124.01-12.187-.002l-3.56.033c-8.27-.065-15.333-1.413-22.012-6.529l-1.816-2.117-1.872-2.07c-4.49-7.445-5.654-16.848-7.357-25.264l-.758-3.69c-.687-3.347-1.37-6.695-2.051-10.044-.736-3.61-1.476-7.217-2.216-10.825-1.276-6.222-2.548-12.444-3.818-18.666a40906.866 40906.866 0 00-8.065-39.414l-.516-2.517a81155.1 81155.1 0 01-3.124-15.261 41256.366 41256.366 0 00-15.619-75.97c-2.846-13.793-5.695-27.587-8.545-41.38-1.238-5.99-2.474-11.98-3.71-17.971l-1.508-7.295C66.822 92.025 64.277 79.543 62 67l-1.668-.53c-5.423-1.76-10.657-3.777-15.883-6.052l-2.364-1.02c-1.638-.709-3.276-1.419-4.913-2.13a2351.104 2351.104 0 00-7.404-3.2A1013.15 1013.15 0 0116 48l-1.918-.862a352.535 352.535 0 01-5-2.337l-2.723-1.288C3.537 41.703 1.893 39.753 0 37c-.986-5.048-.812-9.58 1.75-14.063 6.406-5.516 13.026-5.04 20.621-2.058zM101 126c4.014 20.944 4.014 20.944 8.214 41.847l.854 4.165c.753 3.666 1.507 7.332 2.262 10.997l1.902 9.249c1.492 7.26 2.986 14.52 4.48 21.78 1.54 7.473 3.075 14.947 4.61 22.421 1.327 6.461 2.656 12.922 3.985 19.383l2.37 11.523c.737 3.59 1.475 7.18 2.216 10.769l1.198 5.834.721 3.493.626 3.04c.543 2.608.543 2.608 1.562 5.499h315c2.633-10.532 5.132-21.006 7.3-31.63l.918-4.456c.819-3.975 1.634-7.952 2.447-11.929.856-4.18 1.716-8.36 2.575-12.54 1.438-7 2.873-14 4.306-21.001 1.658-8.094 3.32-16.186 4.983-24.278 1.606-7.808 3.208-15.616 4.81-23.425.679-3.316 1.36-6.632 2.042-9.948.8-3.893 1.598-7.786 2.394-11.68.292-1.43.586-2.858.88-4.287.401-1.946.798-3.893 1.195-5.84l.677-3.303c.56-2.721.56-2.721.473-5.683H101zM404 414c9.08 8.513 13.843 19.29 14.334 31.656.261 13.399-3.815 23.967-12.709 34.031-12.28 10.82-23.156 14.157-39.394 13.492-11.303-.908-21.035-7.278-28.668-15.335C328.818 467.526 326.139 455.286 327 442c1.253-8.418 4.173-15.036 9-22l1.875-2.75c18.048-19.11 46.202-19.904 66.125-3.25zm-46.555 21.273c-3.6 4.301-4.75 8.739-4.382 14.29.913 5.698 3.145 9.737 7.375 13.75 5.666 3.73 10.834 4.69 17.562 3.687 6.073-2.512 10.138-6.554 13.25-12.313 1.749-6.266 1.225-11.193-1.93-16.796-3.305-4.733-7.11-7.845-12.695-9.454-7.434-1.226-13.82 1.776-19.18 6.836zM246 414c9.08 8.513 13.843 19.29 14.334 31.656.261 13.395-3.78 24.135-12.834 34.094L245 482l-2.625 2.5c-10.509 8.648-23.383 9.544-36.375 8.5-11.824-2.286-22.446-9.126-29.402-18.988-7.174-11.927-9.363-24.587-6.473-38.137 1.648-5.958 4.37-10.818 7.875-15.875l1.875-2.75c17.985-19.043 46.27-19.846 66.125-3.25zm-46.555 21.273c-3.6 4.301-4.75 8.739-4.382 14.29 1.021 6.25 3.392 10.533 8.5 14.312 5.176 3.481 10.34 3.929 16.437 3.125 6.073-2.493 10.143-6.565 13.25-12.313 1.749-6.266 1.225-11.193-1.93-16.796-3.305-4.733-7.11-7.845-12.695-9.454-7.434-1.226-13.82 1.776-19.18 6.836z"/><path d="M208.57 164.733l2.286-.014c2.522-.013 5.045-.011 7.567-.01 1.81-.006 3.62-.012 5.431-.02 4.916-.018 9.831-.022 14.746-.024 3.072 0 6.144-.005 9.217-.01 10.72-.019 21.44-.027 32.161-.026 9.988.002 19.976-.02 29.964-.051 8.579-.026 17.158-.037 25.738-.036 5.122 0 10.244-.005 15.366-.026 4.819-.02 9.637-.02 14.456-.005 1.766.002 3.532-.003 5.297-.015 16.696-.107 16.696-.107 23.201 4.504 2.686 3.5 3.224 6.2 3 10.5-.72 4.79-2.569 7.152-6 10.5-3.01 1.505-6.112 1.148-9.413 1.147l-2.344.011c-2.605.011-5.21.015-7.816.019l-5.588.02c-5.07.017-10.14.028-15.21.036a27411.485 27411.485 0 01-39.206.06c-11.44.009-22.878.035-34.316.076-8.836.03-17.672.045-26.508.048-5.28.002-10.559.011-15.839.036-4.967.024-9.934.028-14.902.018-1.823 0-3.645.006-5.468.02-2.49.017-4.979.01-7.469-.003l-2.183.033c-5.026-.064-7.876-1.353-11.738-4.521-2.979-4.468-2.733-8.764-2-14 1.609-3.378 3.853-5.408 7.203-7.136 3.487-1.077 6.755-1.147 10.368-1.131zM215.046 230.479l2.114-.024c2.332-.02 4.662-.012 6.994-.004 1.674-.009 3.348-.02 5.022-.031 4.544-.027 9.087-.028 13.63-.023 3.795.002 7.59-.008 11.384-.017 8.954-.023 17.908-.023 26.862-.011 9.232.012 18.464-.013 27.697-.055 7.93-.036 15.86-.048 23.791-.041 4.735.003 9.47-.002 14.204-.03 4.454-.025 8.907-.02 13.361.005 1.632.005 3.265 0 4.897-.017 13.858-.13 13.858-.13 18.461 3.628 2.747 2.888 3.466 5.4 3.85 9.391-.36 4.313-1.226 7.624-4.313 10.75-4.9 2.443-8.468 3.376-14.02 3.381l-2.033.014c-2.229.012-4.457.003-6.685-.007-1.606.004-3.211.01-4.817.016-4.347.014-8.694.009-13.04-.001-4.556-.008-9.112 0-13.668.004-7.65.006-15.3-.002-22.949-.016-8.836-.016-17.672-.01-26.507.006-7.596.013-15.19.015-22.786.007-4.532-.004-9.064-.005-13.597.005-4.261.009-8.523.003-12.784-.015a690.54 690.54 0 00-4.684.004 591.55 591.55 0 01-6.41-.017l-3.617-.003c-5.059-.562-8.973-2.061-12.778-5.566-2.09-3.617-2.83-6.638-2.625-10.812 2.653-7.664 7.104-10.495 15.046-10.521z"/></svg>