<?xml version="1.0" encoding="UTF-8"?>
<svg version="1.1" xmlns="http://www.w3.org/2000/svg" width="904" height="196">
<path d="M0 0 C298.32 0 596.64 0 904 0 C904 64.68 904 129.36 904 196 C605.68 196 307.36 196 0 196 C0 131.32 0 66.64 0 0 Z " fill="#FE5663" transform="translate(0,0)"/>
<path d="M0 0 C6.6 0 13.2 0 20 0 C20 0.66 20 1.32 20 2 C21.32 2 22.64 2 24 2 C24 2.66 24 3.32 24 4 C24.66 4 25.32 4 26 4 C26 4.66 26 5.32 26 6 C27.32 6 28.64 6 30 6 C30 6.66 30 7.32 30 8 C30.66 8 31.32 8 32 8 C32 8.66 32 9.32 32 10 C32.66 10 33.32 10 34 10 C34 11.32 34 12.64 34 14 C34.66 14 35.32 14 36 14 C36 14.66 36 15.32 36 16 C36.66 16 37.32 16 38 16 C38 16.66 38 17.32 38 18 C38.66 18 39.32 18 40 18 C40 19.32 40 20.64 40 22 C40.66 22 41.32 22 42 22 C42 23.32 42 24.64 42 26 C42.66 26 43.32 26 44 26 C44 27.98 44 29.96 44 32 C44.66 32 45.32 32 46 32 C46 33.98 46 35.96 46 38 C46.66 38 47.32 38 48 38 C48 38.66 48 39.32 48 40 C48.66 40 49.32 40 50 40 C50 41.98 50 43.96 50 46 C50.66 46 51.32 46 52 46 C52 46.66 52 47.32 52 48 C52.66 48 53.32 48 54 48 C54 47.34 54 46.68 54 46 C54.66 46 55.32 46 56 46 C56 44.02 56 42.04 56 40 C56.66 40 57.32 40 58 40 C58 38.02 58 36.04 58 34 C58.66 34 59.32 34 60 34 C60 32.68 60 31.36 60 30 C60.66 30 61.32 30 62 30 C62 28.02 62 26.04 62 24 C62.66 24 63.32 24 64 24 C64 22.68 64 21.36 64 20 C64.66 20 65.32 20 66 20 C66 19.34 66 18.68 66 18 C66.66 18 67.32 18 68 18 C68 16.68 68 15.36 68 14 C68.66 14 69.32 14 70 14 C70 13.34 70 12.68 70 12 C70.66 12 71.32 12 72 12 C72 11.34 72 10.68 72 10 C72.66 10 73.32 10 74 10 C74 9.34 74 8.68 74 8 C74.66 8 75.32 8 76 8 C76 7.34 76 6.68 76 6 C76.66 6 77.32 6 78 6 C78 5.34 78 4.68 78 4 C79.32 4 80.64 4 82 4 C82 3.34 82 2.68 82 2 C83.32 2 84.64 2 86 2 C86 1.34 86 0.68 86 0 C92.6 0 99.2 0 106 0 C106 0.66 106 1.32 106 2 C107.98 2 109.96 2 112 2 C112 2.66 112 3.32 112 4 C113.32 4 114.64 4 116 4 C116 4.66 116 5.32 116 6 C116.66 6 117.32 6 118 6 C118 6.66 118 7.32 118 8 C119.32 8 120.64 8 122 8 C122 8.66 122 9.32 122 10 C122.66 10 123.32 10 124 10 C124 11.32 124 12.64 124 14 C124.66 14 125.32 14 126 14 C126 14.66 126 15.32 126 16 C126.66 16 127.32 16 128 16 C128 17.32 128 18.64 128 20 C128.66 20 129.32 20 130 20 C130 21.32 130 22.64 130 24 C130.66 24 131.32 24 132 24 C132 25.32 132 26.64 132 28 C132.66 28 133.32 28 134 28 C134 31.3 134 34.6 134 38 C134.66 38 135.32 38 136 38 C136 40.64 136 43.28 136 46 C136.66 46 137.32 46 138 46 C138 71.74 138 97.48 138 124 C137.34 124 136.68 124 136 124 C136 133.24 136 142.48 136 152 C135.34 152 134.68 152 134 152 C134 152.66 134 153.32 134 154 C120.8 154 107.6 154 94 154 C94 153.34 94 152.68 94 152 C93.34 152 92.68 152 92 152 C92 129.56 92 107.12 92 84 C90.68 84 89.36 84 88 84 C88 84.66 88 85.32 88 86 C87.34 86 86.68 86 86 86 C86 87.98 86 89.96 86 92 C85.34 92 84.68 92 84 92 C84 94.64 84 97.28 84 100 C83.34 100 82.68 100 82 100 C82 101.98 82 103.96 82 106 C81.34 106 80.68 106 80 106 C80 107.98 80 109.96 80 112 C79.34 112 78.68 112 78 112 C78 113.32 78 114.64 78 116 C77.34 116 76.68 116 76 116 C76 117.98 76 119.96 76 122 C75.34 122 74.68 122 74 122 C74 122.66 74 123.32 74 124 C73.34 124 72.68 124 72 124 C72 125.32 72 126.64 72 128 C71.34 128 70.68 128 70 128 C70 128.66 70 129.32 70 130 C68.68 130 67.36 130 66 130 C66 130.66 66 131.32 66 132 C64.68 132 63.36 132 62 132 C62 132.66 62 133.32 62 134 C57.38 134 52.76 134 48 134 C48 133.34 48 132.68 48 132 C46.68 132 45.36 132 44 132 C44 131.34 44 130.68 44 130 C43.34 130 42.68 130 42 130 C42 129.34 42 128.68 42 128 C41.34 128 40.68 128 40 128 C40 127.34 40 126.68 40 126 C39.34 126 38.68 126 38 126 C38 125.34 38 124.68 38 124 C37.34 124 36.68 124 36 124 C36 123.34 36 122.68 36 122 C35.34 122 34.68 122 34 122 C34 120.68 34 119.36 34 118 C33.34 118 32.68 118 32 118 C32 116.68 32 115.36 32 114 C31.34 114 30.68 114 30 114 C30 112.68 30 111.36 30 110 C29.34 110 28.68 110 28 110 C28 108.68 28 107.36 28 106 C27.34 106 26.68 106 26 106 C26 102.7 26 99.4 26 96 C25.34 96 24.68 96 24 96 C24 94.02 24 92.04 24 90 C23.34 90 22.68 90 22 90 C22 88.68 22 87.36 22 86 C20.02 86 18.04 86 16 86 C16 107.78 16 129.56 16 152 C15.34 152 14.68 152 14 152 C14 152.66 14 153.32 14 154 C0.8 154 -12.4 154 -26 154 C-26 153.34 -26 152.68 -26 152 C-26.66 152 -27.32 152 -28 152 C-28 115.7 -28 79.4 -28 42 C-27.34 42 -26.68 42 -26 42 C-26 38.04 -26 34.08 -26 30 C-25.34 30 -24.68 30 -24 30 C-24 28.02 -24 26.04 -24 24 C-23.34 24 -22.68 24 -22 24 C-22 22.68 -22 21.36 -22 20 C-21.34 20 -20.68 20 -20 20 C-20 18.68 -20 17.36 -20 16 C-19.34 16 -18.68 16 -18 16 C-18 15.34 -18 14.68 -18 14 C-17.34 14 -16.68 14 -16 14 C-16 12.68 -16 11.36 -16 10 C-15.34 10 -14.68 10 -14 10 C-14 9.34 -14 8.68 -14 8 C-13.34 8 -12.68 8 -12 8 C-12 7.34 -12 6.68 -12 6 C-10.68 6 -9.36 6 -8 6 C-8 5.34 -8 4.68 -8 4 C-6.68 4 -5.36 4 -4 4 C-4 3.34 -4 2.68 -4 2 C-2.68 2 -1.36 2 0 2 C0 1.34 0 0.68 0 0 Z " fill="#FEFDFD" transform="translate(374,24)"/>
<path d="M0 0 C16.5 0 33 0 50 0 C50 0.66 50 1.32 50 2 C53.96 2 57.92 2 62 2 C62 2.66 62 3.32 62 4 C63.32 4 64.64 4 66 4 C66 4.66 66 5.32 66 6 C67.98 6 69.96 6 72 6 C72 6.66 72 7.32 72 8 C73.98 8 75.96 8 78 8 C78 8.66 78 9.32 78 10 C79.32 10 80.64 10 82 10 C82 10.66 82 11.32 82 12 C83.32 12 84.64 12 86 12 C86 12.66 86 13.32 86 14 C86.66 14 87.32 14 88 14 C88 14.66 88 15.32 88 16 C89.32 16 90.64 16 92 16 C92 16.66 92 17.32 92 18 C92.66 18 93.32 18 94 18 C94 18.66 94 19.32 94 20 C94.66 20 95.32 20 96 20 C96 21.32 96 22.64 96 24 C96.66 24 97.32 24 98 24 C98 24.66 98 25.32 98 26 C98.66 26 99.32 26 100 26 C100 27.32 100 28.64 100 30 C100.66 30 101.32 30 102 30 C102 31.32 102 32.64 102 34 C102.66 34 103.32 34 104 34 C104 42.58 104 51.16 104 60 C103.34 60 102.68 60 102 60 C102 61.32 102 62.64 102 64 C101.34 64 100.68 64 100 64 C100 65.32 100 66.64 100 68 C99.34 68 98.68 68 98 68 C98 68.66 98 69.32 98 70 C97.34 70 96.68 70 96 70 C96 70.66 96 71.32 96 72 C96.66 72 97.32 72 98 72 C98 72.66 98 73.32 98 74 C98.66 74 99.32 74 100 74 C100 74.66 100 75.32 100 76 C100.66 76 101.32 76 102 76 C102 76.66 102 77.32 102 78 C102.66 78 103.32 78 104 78 C104 79.32 104 80.64 104 82 C104.66 82 105.32 82 106 82 C106 83.32 106 84.64 106 86 C106.66 86 107.32 86 108 86 C108 86.66 108 87.32 108 88 C108.66 88 109.32 88 110 88 C110 96.58 110 105.16 110 114 C109.34 114 108.68 114 108 114 C108 115.98 108 117.96 108 120 C107.34 120 106.68 120 106 120 C106 121.32 106 122.64 106 124 C105.34 124 104.68 124 104 124 C104 125.32 104 126.64 104 128 C103.34 128 102.68 128 102 128 C102 128.66 102 129.32 102 130 C101.34 130 100.68 130 100 130 C100 130.66 100 131.32 100 132 C99.34 132 98.68 132 98 132 C98 132.66 98 133.32 98 134 C97.34 134 96.68 134 96 134 C96 134.66 96 135.32 96 136 C95.34 136 94.68 136 94 136 C94 136.66 94 137.32 94 138 C93.34 138 92.68 138 92 138 C92 138.66 92 139.32 92 140 C90.68 140 89.36 140 88 140 C88 140.66 88 141.32 88 142 C86.68 142 85.36 142 84 142 C84 142.66 84 143.32 84 144 C82.68 144 81.36 144 80 144 C80 144.66 80 145.32 80 146 C78.68 146 77.36 146 76 146 C76 146.66 76 147.32 76 148 C74.02 148 72.04 148 70 148 C70 148.66 70 149.32 70 150 C68.02 150 66.04 150 64 150 C64 150.66 64 151.32 64 152 C59.38 152 54.76 152 50 152 C50 152.66 50 153.32 50 154 C33.5 154 17 154 0 154 C0 153.34 0 152.68 0 152 C-0.66 152 -1.32 152 -2 152 C-2 102.5 -2 53 -2 2 C-1.34 2 -0.68 2 0 2 C0 1.34 0 0.68 0 0 Z " fill="#FEFDFD" transform="translate(524,24)"/>
<path d="M0 0 C13.2 0 26.4 0 40 0 C40 0.66 40 1.32 40 2 C40.66 2 41.32 2 42 2 C42 8.6 42 15.2 42 22 C41.34 22 40.68 22 40 22 C40 38.5 40 55 40 72 C40.66 72 41.32 72 42 72 C42 75.3 42 78.6 42 82 C42.66 82 43.32 82 44 82 C44 85.3 44 88.6 44 92 C44.66 92 45.32 92 46 92 C46 93.32 46 94.64 46 96 C46.66 96 47.32 96 48 96 C48 96.66 48 97.32 48 98 C48.66 98 49.32 98 50 98 C50 98.66 50 99.32 50 100 C50.66 100 51.32 100 52 100 C52 100.66 52 101.32 52 102 C55.3 102 58.6 102 62 102 C62 101.34 62 100.68 62 100 C62.66 100 63.32 100 64 100 C64 98.68 64 97.36 64 96 C64.66 96 65.32 96 66 96 C66 94.68 66 93.36 66 92 C66.66 92 67.32 92 68 92 C68 90.02 68 88.04 68 86 C68.66 86 69.32 86 70 86 C70 84.02 70 82.04 70 80 C70.66 80 71.32 80 72 80 C72 73.4 72 66.8 72 60 C72.66 60 73.32 60 74 60 C74 40.86 74 21.72 74 2 C74.66 2 75.32 2 76 2 C76 1.34 76 0.68 76 0 C89.86 0 103.72 0 118 0 C118 0.66 118 1.32 118 2 C118.66 2 119.32 2 120 2 C120 2.66 120 3.32 120 4 C120.66 4 121.32 4 122 4 C122 28.42 122 52.84 122 78 C121.34 78 120.68 78 120 78 C120 80.64 120 83.28 120 86 C119.34 86 118.68 86 118 86 C118 89.3 118 92.6 118 96 C117.34 96 116.68 96 116 96 C116 97.32 116 98.64 116 100 C115.34 100 114.68 100 114 100 C114 102.64 114 105.28 114 108 C113.34 108 112.68 108 112 108 C112 109.32 112 110.64 112 112 C111.34 112 110.68 112 110 112 C110 113.32 110 114.64 110 116 C109.34 116 108.68 116 108 116 C108 117.32 108 118.64 108 120 C107.34 120 106.68 120 106 120 C106 121.32 106 122.64 106 124 C105.34 124 104.68 124 104 124 C104 125.32 104 126.64 104 128 C103.34 128 102.68 128 102 128 C102 128.66 102 129.32 102 130 C101.34 130 100.68 130 100 130 C100 131.32 100 132.64 100 134 C99.34 134 98.68 134 98 134 C98 134.66 98 135.32 98 136 C97.34 136 96.68 136 96 136 C96 136.66 96 137.32 96 138 C95.34 138 94.68 138 94 138 C94 138.66 94 139.32 94 140 C92.68 140 91.36 140 90 140 C90 140.66 90 141.32 90 142 C89.34 142 88.68 142 88 142 C88 142.66 88 143.32 88 144 C86.68 144 85.36 144 84 144 C84 144.66 84 145.32 84 146 C82.68 146 81.36 146 80 146 C80 146.66 80 147.32 80 148 C78.68 148 77.36 148 76 148 C76 148.66 76 149.32 76 150 C74.02 150 72.04 150 70 150 C70 150.66 70 151.32 70 152 C60.76 152 51.52 152 42 152 C42 151.34 42 150.68 42 150 C41.34 150 40.68 150 40 150 C40 149.34 40 148.68 40 148 C37.36 148 34.72 148 32 148 C32 147.34 32 146.68 32 146 C31.34 146 30.68 146 30 146 C30 145.34 30 144.68 30 144 C28.68 144 27.36 144 26 144 C26 143.34 26 142.68 26 142 C25.34 142 24.68 142 24 142 C24 141.34 24 140.68 24 140 C23.34 140 22.68 140 22 140 C22 139.34 22 138.68 22 138 C21.34 138 20.68 138 20 138 C20 137.34 20 136.68 20 136 C19.34 136 18.68 136 18 136 C18 135.34 18 134.68 18 134 C17.34 134 16.68 134 16 134 C16 133.34 16 132.68 16 132 C15.34 132 14.68 132 14 132 C14 131.34 14 130.68 14 130 C13.34 130 12.68 130 12 130 C12 128.68 12 127.36 12 126 C11.34 126 10.68 126 10 126 C10 124.68 10 123.36 10 122 C9.34 122 8.68 122 8 122 C8 120.68 8 119.36 8 118 C7.34 118 6.68 118 6 118 C6 116.68 6 115.36 6 114 C5.34 114 4.68 114 4 114 C4 112.68 4 111.36 4 110 C3.34 110 2.68 110 2 110 C2 106.7 2 103.4 2 100 C1.34 100 0.68 100 0 100 C0 98.02 0 96.04 0 94 C-0.66 94 -1.32 94 -2 94 C-2 88.72 -2 83.44 -2 78 C-2.66 78 -3.32 78 -4 78 C-4 54.24 -4 30.48 -4 6 C-3.34 6 -2.68 6 -2 6 C-2 4.68 -2 3.36 -2 2 C-1.34 2 -0.68 2 0 2 C0 1.34 0 0.68 0 0 Z " fill="#FEFDFD" transform="translate(214,26)"/>
<path d="M0 0 C9.9 0 19.8 0 30 0 C30 0.66 30 1.32 30 2 C30.66 2 31.32 2 32 2 C32 2.66 32 3.32 32 4 C32.66 4 33.32 4 34 4 C34 16.54 34 29.08 34 42 C34.66 42 35.32 42 36 42 C36 43.32 36 44.64 36 46 C36.66 46 37.32 46 38 46 C38 47.98 38 49.96 38 52 C38.66 52 39.32 52 40 52 C40 52.66 40 53.32 40 54 C40.66 54 41.32 54 42 54 C42 54.66 42 55.32 42 56 C45.3 56 48.6 56 52 56 C52 54.68 52 53.36 52 52 C52.66 52 53.32 52 54 52 C54 51.34 54 50.68 54 50 C54.66 50 55.32 50 56 50 C56 48.68 56 47.36 56 46 C56.66 46 57.32 46 58 46 C58 44.02 58 42.04 58 40 C58.66 40 59.32 40 60 40 C60 38.02 60 36.04 60 34 C60.66 34 61.32 34 62 34 C62 24.1 62 14.2 62 4 C62.66 4 63.32 4 64 4 C64 3.34 64 2.68 64 2 C64.66 2 65.32 2 66 2 C66 1.34 66 0.68 66 0 C77.22 0 88.44 0 100 0 C100 0.66 100 1.32 100 2 C100.66 2 101.32 2 102 2 C102 2.66 102 3.32 102 4 C102.66 4 103.32 4 104 4 C104 5.98 104 7.96 104 10 C104.66 10 105.32 10 106 10 C106 37.06 106 64.12 106 92 C105.34 92 104.68 92 104 92 C104 95.96 104 99.92 104 104 C103.34 104 102.68 104 102 104 C102 105.32 102 106.64 102 108 C101.34 108 100.68 108 100 108 C100 109.98 100 111.96 100 114 C99.34 114 98.68 114 98 114 C98 115.32 98 116.64 98 118 C97.34 118 96.68 118 96 118 C96 119.32 96 120.64 96 122 C95.34 122 94.68 122 94 122 C94 123.32 94 124.64 94 126 C93.34 126 92.68 126 92 126 C92 126.66 92 127.32 92 128 C91.34 128 90.68 128 90 128 C90 128.66 90 129.32 90 130 C89.34 130 88.68 130 88 130 C88 131.32 88 132.64 88 134 C87.34 134 86.68 134 86 134 C86 134.66 86 135.32 86 136 C85.34 136 84.68 136 84 136 C84 136.66 84 137.32 84 138 C83.34 138 82.68 138 82 138 C82 138.66 82 139.32 82 140 C80.68 140 79.36 140 78 140 C78 140.66 78 141.32 78 142 C77.34 142 76.68 142 76 142 C76 142.66 76 143.32 76 144 C74.68 144 73.36 144 72 144 C72 144.66 72 145.32 72 146 C70.68 146 69.36 146 68 146 C68 146.66 68 147.32 68 148 C66.68 148 65.36 148 64 148 C64 148.66 64 149.32 64 150 C60.7 150 57.4 150 54 150 C54 150.66 54 151.32 54 152 C44.76 152 35.52 152 26 152 C26 151.34 26 150.68 26 150 C24.02 150 22.04 150 20 150 C20 149.34 20 148.68 20 148 C18.02 148 16.04 148 14 148 C14 147.34 14 146.68 14 146 C12.68 146 11.36 146 10 146 C10 145.34 10 144.68 10 144 C8.02 144 6.04 144 4 144 C4 143.34 4 142.68 4 142 C2.68 142 1.36 142 0 142 C0 141.34 0 140.68 0 140 C-0.66 140 -1.32 140 -2 140 C-2 139.34 -2 138.68 -2 138 C-2.66 138 -3.32 138 -4 138 C-4 135.36 -4 132.72 -4 130 C-3.34 130 -2.68 130 -2 130 C-2 128.02 -2 126.04 -2 124 C-1.34 124 -0.68 124 0 124 C0 122.02 0 120.04 0 118 C0.66 118 1.32 118 2 118 C2 116.68 2 115.36 2 114 C2.66 114 3.32 114 4 114 C4 112.68 4 111.36 4 110 C4.66 110 5.32 110 6 110 C6 109.34 6 108.68 6 108 C6.66 108 7.32 108 8 108 C8 107.34 8 106.68 8 106 C9.98 106 11.96 106 14 106 C14 106.66 14 107.32 14 108 C15.32 108 16.64 108 18 108 C18 108.66 18 109.32 18 110 C20.64 110 23.28 110 26 110 C26 110.66 26 111.32 26 112 C27.32 112 28.64 112 30 112 C30 112.66 30 113.32 30 114 C34.62 114 39.24 114 44 114 C44 113.34 44 112.68 44 112 C45.98 112 47.96 112 50 112 C50 111.34 50 110.68 50 110 C51.32 110 52.64 110 54 110 C54 109.34 54 108.68 54 108 C54.66 108 55.32 108 56 108 C56 107.34 56 106.68 56 106 C56.66 106 57.32 106 58 106 C58 105.34 58 104.68 58 104 C58.66 104 59.32 104 60 104 C60 103.34 60 102.68 60 102 C60.66 102 61.32 102 62 102 C62 100.02 62 98.04 62 96 C60.02 96 58.04 96 56 96 C56 96.66 56 97.32 56 98 C48.74 98 41.48 98 34 98 C34 97.34 34 96.68 34 96 C31.36 96 28.72 96 26 96 C26 95.34 26 94.68 26 94 C24.68 94 23.36 94 22 94 C22 93.34 22 92.68 22 92 C20.68 92 19.36 92 18 92 C18 91.34 18 90.68 18 90 C17.34 90 16.68 90 16 90 C16 89.34 16 88.68 16 88 C15.34 88 14.68 88 14 88 C14 87.34 14 86.68 14 86 C13.34 86 12.68 86 12 86 C12 85.34 12 84.68 12 84 C11.34 84 10.68 84 10 84 C10 83.34 10 82.68 10 82 C9.34 82 8.68 82 8 82 C8 81.34 8 80.68 8 80 C7.34 80 6.68 80 6 80 C6 79.34 6 78.68 6 78 C5.34 78 4.68 78 4 78 C4 76.68 4 75.36 4 74 C3.34 74 2.68 74 2 74 C2 72.68 2 71.36 2 70 C1.34 70 0.68 70 0 70 C0 68.68 0 67.36 0 66 C-0.66 66 -1.32 66 -2 66 C-2 64.02 -2 62.04 -2 60 C-2.66 60 -3.32 60 -4 60 C-4 56.7 -4 53.4 -4 50 C-4.66 50 -5.32 50 -6 50 C-6 34.82 -6 19.64 -6 4 C-5.34 4 -4.68 4 -4 4 C-4 3.34 -4 2.68 -4 2 C-2.68 2 -1.36 2 0 2 C0 1.34 0 0.68 0 0 Z " fill="#FEFCFC" transform="translate(92,26)"/>
<path d="M0 0 C11.88 0 23.76 0 36 0 C36 0.66 36 1.32 36 2 C39.3 2 42.6 2 46 2 C46 2.66 46 3.32 46 4 C47.98 4 49.96 4 52 4 C52 4.66 52 5.32 52 6 C52.66 6 53.32 6 54 6 C54 6.66 54 7.32 54 8 C54.66 8 55.32 8 56 8 C56 10.64 56 13.28 56 16 C55.34 16 54.68 16 54 16 C54 19.3 54 22.6 54 26 C53.34 26 52.68 26 52 26 C52 28.64 52 31.28 52 34 C51.34 34 50.68 34 50 34 C50 35.98 50 37.96 50 40 C49.34 40 48.68 40 48 40 C48 40.66 48 41.32 48 42 C46.02 42 44.04 42 42 42 C42 41.34 42 40.68 42 40 C34.74 40 27.48 40 20 40 C20 40.66 20 41.32 20 42 C17.36 42 14.72 42 12 42 C12 42.66 12 43.32 12 44 C11.34 44 10.68 44 10 44 C10 44.66 10 45.32 10 46 C9.34 46 8.68 46 8 46 C8 47.98 8 49.96 8 52 C8.66 52 9.32 52 10 52 C10 52.66 10 53.32 10 54 C10.66 54 11.32 54 12 54 C12 54.66 12 55.32 12 56 C21.24 56 30.48 56 40 56 C40 56.66 40 57.32 40 58 C40.66 58 41.32 58 42 58 C42 58.66 42 59.32 42 60 C42.66 60 43.32 60 44 60 C44 69.9 44 79.8 44 90 C43.34 90 42.68 90 42 90 C42 91.32 42 92.64 42 94 C41.34 94 40.68 94 40 94 C40 94.66 40 95.32 40 96 C31.42 96 22.84 96 14 96 C14 96.66 14 97.32 14 98 C12.02 98 10.04 98 8 98 C8 98.66 8 99.32 8 100 C7.34 100 6.68 100 6 100 C6 100.66 6 101.32 6 102 C5.34 102 4.68 102 4 102 C4 103.98 4 105.96 4 108 C4.66 108 5.32 108 6 108 C6 108.66 6 109.32 6 110 C6.66 110 7.32 110 8 110 C8 110.66 8 111.32 8 112 C17.9 112 27.8 112 38 112 C38 111.34 38 110.68 38 110 C41.3 110 44.6 110 48 110 C48 110.66 48 111.32 48 112 C48.66 112 49.32 112 50 112 C50 112.66 50 113.32 50 114 C50.66 114 51.32 114 52 114 C52 115.32 52 116.64 52 118 C52.66 118 53.32 118 54 118 C54 121.96 54 125.92 54 130 C54.66 130 55.32 130 56 130 C56 135.94 56 141.88 56 148 C55.34 148 54.68 148 54 148 C54 148.66 54 149.32 54 150 C52.02 150 50.04 150 48 150 C48 150.66 48 151.32 48 152 C46.02 152 44.04 152 42 152 C42 152.66 42 153.32 42 154 C40.02 154 38.04 154 36 154 C36 154.66 36 155.32 36 156 C32.7 156 29.4 156 26 156 C26 156.66 26 157.32 26 158 C16.1 158 6.2 158 -4 158 C-4 157.34 -4 156.68 -4 156 C-5.32 156 -6.64 156 -8 156 C-8 155.34 -8 154.68 -8 154 C-11.3 154 -14.6 154 -18 154 C-18 153.34 -18 152.68 -18 152 C-19.32 152 -20.64 152 -22 152 C-22 151.34 -22 150.68 -22 150 C-22.66 150 -23.32 150 -24 150 C-24 149.34 -24 148.68 -24 148 C-24.66 148 -25.32 148 -26 148 C-26 147.34 -26 146.68 -26 146 C-26.66 146 -27.32 146 -28 146 C-28 145.34 -28 144.68 -28 144 C-28.66 144 -29.32 144 -30 144 C-30 143.34 -30 142.68 -30 142 C-30.66 142 -31.32 142 -32 142 C-32 141.34 -32 140.68 -32 140 C-32.66 140 -33.32 140 -34 140 C-34 138.68 -34 137.36 -34 136 C-34.66 136 -35.32 136 -36 136 C-36 134.02 -36 132.04 -36 130 C-36.66 130 -37.32 130 -38 130 C-38 128.02 -38 126.04 -38 124 C-38.66 124 -39.32 124 -40 124 C-40 117.4 -40 110.8 -40 104 C-39.34 104 -38.68 104 -38 104 C-38 102.02 -38 100.04 -38 98 C-37.34 98 -36.68 98 -36 98 C-36 95.36 -36 92.72 -36 90 C-35.34 90 -34.68 90 -34 90 C-34 88.68 -34 87.36 -34 86 C-33.34 86 -32.68 86 -32 86 C-32 85.34 -32 84.68 -32 84 C-31.34 84 -30.68 84 -30 84 C-30 83.34 -30 82.68 -30 82 C-29.34 82 -28.68 82 -28 82 C-28 80.68 -28 79.36 -28 78 C-28.66 78 -29.32 78 -30 78 C-30 76.68 -30 75.36 -30 74 C-30.66 74 -31.32 74 -32 74 C-32 73.34 -32 72.68 -32 72 C-32.66 72 -33.32 72 -34 72 C-34 70.68 -34 69.36 -34 68 C-34.66 68 -35.32 68 -36 68 C-36 66.68 -36 65.36 -36 64 C-36.66 64 -37.32 64 -38 64 C-38 61.36 -38 58.72 -38 56 C-38.66 56 -39.32 56 -40 56 C-40 48.74 -40 41.48 -40 34 C-39.34 34 -38.68 34 -38 34 C-38 32.02 -38 30.04 -38 28 C-37.34 28 -36.68 28 -36 28 C-36 26.68 -36 25.36 -36 24 C-35.34 24 -34.68 24 -34 24 C-34 23.34 -34 22.68 -34 22 C-33.34 22 -32.68 22 -32 22 C-32 20.68 -32 19.36 -32 18 C-31.34 18 -30.68 18 -30 18 C-30 17.34 -30 16.68 -30 16 C-29.34 16 -28.68 16 -28 16 C-28 15.34 -28 14.68 -28 14 C-27.34 14 -26.68 14 -26 14 C-26 13.34 -26 12.68 -26 12 C-24.68 12 -23.36 12 -22 12 C-22 11.34 -22 10.68 -22 10 C-21.34 10 -20.68 10 -20 10 C-20 9.34 -20 8.68 -20 8 C-18.68 8 -17.36 8 -16 8 C-16 7.34 -16 6.68 -16 6 C-15.34 6 -14.68 6 -14 6 C-14 5.34 -14 4.68 -14 4 C-11.36 4 -8.72 4 -6 4 C-6 3.34 -6 2.68 -6 2 C-4.02 2 -2.04 2 0 2 C0 1.34 0 0.68 0 0 Z " fill="#FEFDFD" transform="translate(774,24)"/>
<path d="M0 0 C13.86 0 27.72 0 42 0 C42 0.66 42 1.32 42 2 C43.32 2 44.64 2 46 2 C46 33.68 46 65.36 46 98 C55.9 98 65.8 98 76 98 C76 98.66 76 99.32 76 100 C76.66 100 77.32 100 78 100 C78 100.66 78 101.32 78 102 C78.66 102 79.32 102 80 102 C80 117.84 80 133.68 80 150 C79.34 150 78.68 150 78 150 C78 150.66 78 151.32 78 152 C52.26 152 26.52 152 0 152 C0 151.34 0 150.68 0 150 C-0.66 150 -1.32 150 -2 150 C-2 101.16 -2 52.32 -2 2 C-1.34 2 -0.68 2 0 2 C0 1.34 0 0.68 0 0 Z " fill="#FEFEFE" transform="translate(646,26)"/>
<path d="M0 0 C4.62 0 9.24 0 14 0 C14 0.66 14 1.32 14 2 C15.32 2 16.64 2 18 2 C18 2.66 18 3.32 18 4 C18.66 4 19.32 4 20 4 C20 4.66 20 5.32 20 6 C20.66 6 21.32 6 22 6 C22 6.66 22 7.32 22 8 C22.66 8 23.32 8 24 8 C24 11.3 24 14.6 24 18 C23.34 18 22.68 18 22 18 C22 18.66 22 19.32 22 20 C21.34 20 20.68 20 20 20 C20 21.32 20 22.64 20 24 C18.02 24 16.04 24 14 24 C14 24.66 14 25.32 14 26 C12.68 26 11.36 26 10 26 C10 26.66 10 27.32 10 28 C6.7 28 3.4 28 0 28 C0 18.76 0 9.52 0 0 Z " fill="#FF5663" transform="translate(562,118)"/>
<path d="M0 0 C4.62 0 9.24 0 14 0 C14 0.66 14 1.32 14 2 C15.98 2 17.96 2 20 2 C20 2.66 20 3.32 20 4 C20.66 4 21.32 4 22 4 C22 4.66 22 5.32 22 6 C22.66 6 23.32 6 24 6 C24 9.3 24 12.6 24 16 C23.34 16 22.68 16 22 16 C22 16.66 22 17.32 22 18 C20.68 18 19.36 18 18 18 C18 18.66 18 19.32 18 20 C16.68 20 15.36 20 14 20 C14 20.66 14 21.32 14 22 C9.38 22 4.76 22 0 22 C0 14.74 0 7.48 0 0 Z " fill="#FF5966" transform="translate(562,62)"/>
<path d="M0 0 C0.66 0 1.32 0 2 0 C2 31.68 2 63.36 2 96 C11.9 96 21.8 96 32 96 C32 96.66 32 97.32 32 98 C21.44 98 10.88 98 0 98 C0 65.66 0 33.32 0 0 Z " fill="#FFAAB1" transform="translate(690,28)"/>
<path d="M0 0 C0.66 0 1.32 0 2 0 C2 8.58 2 17.16 2 26 C4.64 26 7.28 26 10 26 C10 26.66 10 27.32 10 28 C6.7 28 3.4 28 0 28 C0 18.76 0 9.52 0 0 Z " fill="#FF99A1" transform="translate(562,118)"/>
<path d="M0 0 C4.62 0 9.24 0 14 0 C14 0.66 14 1.32 14 2 C10.04 2 6.08 2 2 2 C2 8.6 2 15.2 2 22 C1.34 22 0.68 22 0 22 C0 14.74 0 7.48 0 0 Z " fill="#FF8A93" transform="translate(562,62)"/>
<path d="M0 0 C1.98 0 3.96 0 6 0 C6 1.98 6 3.96 6 6 C5.34 6 4.68 6 4 6 C4 4.68 4 3.36 4 2 C2.68 2 1.36 2 0 2 C0 1.34 0 0.68 0 0 Z " fill="#FF818B" transform="translate(148,122)"/>
</svg>
