<?xml version="1.0" encoding="UTF-8"?>
<svg version="1.1" xmlns="http://www.w3.org/2000/svg" width="512" height="510">
<path d="M0 0 C2.31640625 -0.44140625 2.31640625 -0.44140625 5 0 C7.46484375 1.72265625 7.46484375 1.72265625 9.9375 4.0625 C11.24074219 5.29419922 11.24074219 5.29419922 12.5703125 6.55078125 C15.090793 9.09152285 17.44457317 11.69643326 19.71875 14.45703125 C22.92884202 18.32284329 26.66019164 21.58406746 30.4375 24.875 C33.82864456 27.86123178 36.8087787 30.94389711 39.68359375 34.421875 C42.89534106 38.27215961 46.60266917 41.53165728 50.375 44.8125 C54.05383469 48.05134117 57.28572615 51.46521909 60.45703125 55.1953125 C63.63831524 58.91620668 67.15788817 62.14475018 70.875 65.3125 C74.39172694 68.35238261 77.41053563 71.6265801 80.421875 75.16015625 C83.62017546 78.88886792 87.14461273 82.13343676 90.875 85.3125 C94.39119589 88.35192357 97.41089469 91.62361994 100.41796875 95.16015625 C102.49107978 97.5711076 104.72390894 99.78081121 107 102 C108.16801776 103.16531401 109.33458984 104.33207818 110.5 105.5 C111.098125 106.09683594 111.69625 106.69367188 112.3125 107.30859375 C113.71781711 108.71716391 115.110531 110.13829427 116.5 111.5625 C118.41398891 113.42863919 120.32109786 115.11460757 122.375 116.8125 C125.59368809 119.53973249 128.30765545 122.51026677 131.04296875 125.71484375 C133.36642555 128.42786216 135.73723892 131.09339471 138.125 133.75 C138.93195313 134.65234375 139.73890625 135.5546875 140.5703125 136.484375 C142.90903829 138.90582099 145.3632688 140.91606103 148 143 C148.804375 143.969375 149.60875 144.93875 150.4375 145.9375 C153.05199465 149.06213995 155.87225464 151.40463683 159 154 C160.33333333 155.66666667 161.66666667 157.33333333 163 159 C163.99 159.825 164.98 160.65 166 161.5 C168.80221884 163.83518237 170.73520772 166.16900965 173 169 C173.969375 169.804375 174.93875 170.60875 175.9375 171.4375 C179.06213995 174.05199465 181.40463683 176.87225464 184 180 C185.2375 180.99 185.2375 180.99 186.5 182 C189.45053996 184.36043197 191.58459781 187.10151737 194 190 C195.2375 190.99 195.2375 190.99 196.5 192 C199 194 199 194 201.4375 196.9375 C204.05199465 200.06213995 206.87225464 202.40463683 210 205 C211.33333333 206.66666667 212.66666667 208.33333333 214 210 C214.969375 210.804375 215.93875 211.60875 216.9375 212.4375 C220.06920147 215.05790327 222.43019531 217.83716346 225 221 C227.97046022 224.13548579 231.1192294 226.98163505 234.375 229.8125 C238.05414868 233.05161761 241.28909177 236.46188592 244.453125 240.19921875 C245.73578894 241.69242096 247.10808053 243.10808053 248.5 244.5 C249.325 245.325 250.15 246.15 251 247 C251.61488281 247.54785156 252.22976563 248.09570312 252.86328125 248.66015625 C256.82390068 252.52553033 258.54290385 255.39676068 258.875 261 C258.52347852 266.44513659 257.03863496 269.70874792 253.12890625 273.5 C248.4701703 276.78248551 244.12685811 277.19335074 238.5625 276.6875 C231.11902812 273.1616449 225.46397333 266.83421901 220.28125 260.54296875 C216.37886536 255.84345066 211.69840031 251.93974771 207.0859375 247.96484375 C205.10404231 246.0980024 203.59951516 244.19227666 202 242 C201.99940291 242.54575782 201.99880582 243.09151564 201.99819064 243.65381157 C201.96230139 275.99554722 201.90566973 308.33717038 201.82207905 340.67881603 C201.81206152 344.56159312 201.8022174 348.44437063 201.79248047 352.32714844 C201.78956841 353.48664148 201.78956841 353.48664148 201.78659752 354.66955863 C201.75557131 367.18792943 201.73859514 379.70628189 201.72680578 392.2246839 C201.71439742 405.06848616 201.6869032 417.91219215 201.64538693 430.75593364 C201.62024241 438.68206895 201.60688341 446.60804462 201.60857043 454.53422038 C201.60860368 460.61071309 201.58765402 466.68694808 201.55883217 472.76338005 C201.55029983 475.2570844 201.5486057 477.75082277 201.55419731 480.24453545 C201.56080824 483.64532593 201.5429848 487.04513924 201.51898193 490.4458313 C201.53062256 491.93124914 201.53062256 491.93124914 201.54249835 493.44667542 C201.46988101 499.24552324 200.88126019 502.59061287 197 507 C194.75 507.875 194.75 507.875 193 508 C193 508.66 193 509.32 193 510 C174.86725654 510.14024895 156.73465412 510.2460094 138.60148525 510.31087303 C130.18164867 510.34179282 121.76214937 510.38393694 113.3425293 510.45263672 C106.0027616 510.51249684 98.6632382 510.55116282 91.32323319 510.56453097 C87.4376943 510.57234376 83.5528542 510.59066477 79.6675396 510.63438034 C76.00741914 510.67522695 72.3482826 510.68764544 68.68795586 510.67864609 C66.71035053 510.68107365 64.73285144 510.71329954 62.75552368 510.746521 C56.3152727 510.70179305 52.01794818 510.45957162 47.34446812 505.77683449 C44.19798361 501.61847467 42.62540876 498.75099143 42.62145996 493.46583557 C42.61325729 492.36537903 42.60505463 491.26492249 42.59660339 490.13111877 C42.60275162 488.93357468 42.60889984 487.73603058 42.61523438 486.50219727 C42.60698716 484.55457202 42.59873917 482.60694678 42.59046173 480.65932167 C42.58446984 478.57086793 42.58584285 476.48253376 42.58930969 474.39407539 C42.59612965 470.03588294 42.5802338 465.67795312 42.56091309 461.31980896 C42.52308184 452.06738676 42.51026226 442.81498768 42.5 433.5625 C42.48892109 423.57643064 42.47353868 413.59048257 42.42928743 403.60449642 C42.410957 399.27493101 42.40702947 394.94566673 42.41422272 390.61607182 C42.4153797 388.56978541 42.40973203 386.52365303 42.40104675 384.47738647 C42.3905133 381.98641639 42.3905863 379.4953692 42.40339661 377.00440979 C42.46056718 369.01046566 42.46056718 369.01046566 39 362 C34.87973556 359.27188579 31.61085945 358.62272018 26.72265625 358.61181641 C25.50118896 358.60235992 24.27972168 358.59290344 23.02124023 358.5831604 C21.71485596 358.58923309 20.40847168 358.59530579 19.0625 358.6015625 C17.6953923 358.59953895 16.32828566 358.59662518 14.96118164 358.59286499 C12.10324778 358.58845479 9.24559622 358.59483016 6.38769531 358.60888672 C2.73600287 358.62597828 -0.91502796 358.61613002 -4.56669617 358.59816933 C-7.38754199 358.58729589 -10.20823259 358.59079402 -13.02908325 358.5985527 C-15.02647331 358.60150917 -17.02386956 358.59244513 -19.02124023 358.5831604 C-20.24270752 358.59261688 -21.4641748 358.60207336 -22.72265625 358.61181641 C-24.32765991 358.61539658 -24.32765991 358.61539658 -25.96508789 358.61904907 C-29.63487264 359.07969105 -31.91208994 359.95542946 -35 362 C-39.20556544 367.44720396 -38.39698654 374.02019081 -38.3371582 380.57958984 C-38.33800844 382.52253671 -38.3388652 384.46548359 -38.33996713 386.40843034 C-38.33842437 388.48918336 -38.32964429 390.5697989 -38.31899452 392.65052414 C-38.29779485 396.99672032 -38.30263957 401.34264967 -38.3120575 405.68887329 C-38.33489168 418.04492865 -38.32303706 430.40082338 -38.28491211 442.75683594 C-38.26406615 449.58733585 -38.264817 456.41750297 -38.28844708 463.24799693 C-38.30208326 467.56313335 -38.28904014 471.87708666 -38.25584948 476.1921041 C-38.23806426 479.51542137 -38.25944341 482.83829547 -38.2746582 486.16162109 C-38.25772415 487.34837936 -38.2407901 488.53513763 -38.2233429 489.75785828 C-38.29634114 496.29916273 -39.02794174 500.36464799 -43.3223753 505.40838051 C-47.20787715 509.09468799 -49.31804705 510.37548912 -54.79595947 510.36076355 C-56.57117981 510.36694954 -56.57117981 510.36694954 -58.38226318 510.3732605 C-59.67698547 510.36247467 -60.97170776 510.35168884 -62.30566406 510.34057617 C-63.68554669 510.33972977 -65.06543066 510.3402053 -66.4453125 510.34190369 C-70.18887632 510.34276457 -73.93215187 510.32512395 -77.67564869 510.30418181 C-81.58874361 510.28543043 -85.50184511 510.28366579 -89.41497803 510.28010559 C-96.82392892 510.27078059 -104.23274705 510.24616069 -111.64163947 510.21605712 C-120.07686134 510.18252725 -128.51208955 510.16603066 -136.94736147 510.15097082 C-154.29831778 510.1196115 -171.64914485 510.06684219 -189 510 C-189 509.34 -189 508.68 -189 508 C-190.1446875 507.6596875 -190.1446875 507.6596875 -191.3125 507.3125 C-194.78876149 505.6147909 -195.43125252 504.54927398 -197 501 C-197.44463538 497.52248525 -197.41581997 494.06807801 -197.39872742 490.56608582 C-197.40537424 489.50417363 -197.41202107 488.44226144 -197.41886932 487.3481701 C-197.43754494 483.78434388 -197.43489089 480.22085205 -197.43237305 476.65698242 C-197.44138739 474.10454838 -197.45171379 471.55211868 -197.46325684 468.99969482 C-197.48516393 463.50164526 -197.49792867 458.00369497 -197.50238609 452.5056057 C-197.50884653 444.55633783 -197.53178201 436.60718454 -197.55872939 428.65796284 C-197.6020034 415.76067949 -197.63196664 402.86340097 -197.65356445 389.96606445 C-197.67457231 377.43804554 -197.7018457 364.9100661 -197.73754883 352.38208008 C-197.73974765 351.60976184 -197.74194648 350.8374436 -197.74421193 350.04172178 C-197.75528154 346.1672002 -197.76647436 342.29267899 -197.77772844 338.41815794 C-197.87092223 306.27880486 -197.94251616 274.13943748 -198 242 C-198.78697266 242.95447021 -199.57394531 243.90894043 -200.38476562 244.89233398 C-202.27765974 247.18810759 -204.17960051 249.18538438 -206.5 251.0625 C-210.19596941 254.14644866 -213.60168079 257.36232885 -216.734375 261.03125 C-228.33036416 274.57536534 -228.33036416 274.57536534 -236.6875 277.125 C-242.69413622 276.89833448 -246.58140205 275.8408614 -250.9375 271.625 C-254.34610893 267.31365446 -255.20303672 263.61520306 -254.87890625 258.16015625 C-252.28365936 248.82880186 -243.17241244 241.94193084 -236 236 C-232.8672982 233.02393329 -230.02050824 229.88158423 -227.1875 226.625 C-223.94865883 222.94616531 -220.53478091 219.71427385 -216.8046875 216.54296875 C-213.08379332 213.36168476 -209.85524982 209.84211183 -206.6875 206.125 C-203.64761739 202.60827306 -200.3734199 199.58946437 -196.83984375 196.578125 C-193.11113208 193.37982454 -189.86656324 189.85538727 -186.6875 186.125 C-183.64640433 182.60686971 -180.37040594 179.58731924 -176.8359375 176.57421875 C-172.93229291 173.22705115 -169.55508583 169.49608896 -166.1875 165.625 C-162.94865883 161.94616531 -159.53478091 158.71427385 -155.8046875 155.54296875 C-152.08379332 152.36168476 -148.85524982 148.84211183 -145.6875 145.125 C-142.64640433 141.60686971 -139.37040594 138.58731924 -135.8359375 135.57421875 C-131.2176911 131.61431811 -127.29284336 127.09395277 -123.35546875 122.4765625 C-121.43334145 120.45561937 -119.51858623 118.69385271 -117.4037323 116.8890686 C-112.80013131 112.88194726 -108.48908421 108.62252864 -104.18481445 104.29833984 C-102.92226837 103.0360128 -102.92226837 103.0360128 -101.63421631 101.7481842 C-99.34955386 99.46294874 -97.0671113 97.17552491 -94.78567529 94.88706923 C-92.38621023 92.48129898 -89.98386123 90.07841188 -87.58183289 87.67520142 C-83.03863253 83.12890499 -78.49798352 78.58006938 -73.95827121 74.03029025 C-68.80603156 68.86687162 -63.65095366 63.70629067 -58.49562895 58.54595256 C-49.67967063 49.72132631 -40.86581596 40.89460471 -32.05436707 32.06547546 C-30.64284475 30.6511486 -29.2311466 29.23699718 -27.8192234 27.82307053 C-26.6953039 26.69677426 -25.57229848 25.56956399 -24.45078087 24.44087601 C-21.86714892 21.84375858 -19.21176834 19.393108 -16.4375 17 C-13.24602905 14.19298017 -10.62362179 11.34737952 -8 8 C-6.97602733 7.1043581 -5.93307442 6.23008652 -4.875 5.375 C-1.88146585 3.13441618 -1.88146585 3.13441618 0 0 Z M-0.96160889 44.46713257 C-1.98753143 45.49733017 -1.98753143 45.49733017 -3.03417969 46.54833984 C-4.20494049 47.70987076 -4.20494049 47.70987076 -5.39935303 48.89486694 C-6.23178528 49.74167023 -7.06421753 50.58847351 -7.921875 51.4609375 C-8.78186096 52.3218399 -9.64184692 53.18274231 -10.52789307 54.06973267 C-12.34479462 55.89268052 -14.15682855 57.72049079 -15.96435547 59.55273438 C-18.74216872 62.36706577 -21.53565951 65.16505782 -24.33203125 67.9609375 C-26.09209312 69.73082932 -27.85123947 71.50163213 -29.609375 73.2734375 C-30.44990417 74.11619232 -31.29043335 74.95894714 -32.15643311 75.82723999 C-32.92433167 76.60789825 -33.69223022 77.38855652 -34.48339844 78.19287109 C-35.50454742 79.22545547 -35.50454742 79.22545547 -36.54632568 80.27890015 C-38.21508628 81.87917891 -38.21508628 81.87917891 -38 84 C-38.53625 84.20625 -39.0725 84.4125 -39.625 84.625 C-42.91978009 86.53250426 -45.59363628 89.04819384 -48 92 C-48 92.66 -48 93.32 -48 94 C-48.53625 94.20625 -49.0725 94.4125 -49.625 94.625 C-52.91978009 96.53250426 -55.59363628 99.04819384 -58 102 C-58 102.66 -58 103.32 -58 104 C-58.8353125 104.37125 -58.8353125 104.37125 -59.6875 104.75 C-66.44729498 108.40394323 -71.40988023 114.32392676 -76.4375 120 C-78.93939683 122.80528299 -81.37506961 125.46404677 -84.3125 127.8125 C-87.05304975 129.88586088 -87.05304975 129.88586088 -89 132.5 C-91.36043197 135.45053996 -94.10151737 137.58459781 -97 140 C-97.66 140.825 -98.32 141.65 -99 142.5 C-101.36043197 145.45053996 -104.10151737 147.58459781 -107 150 C-107.639375 150.804375 -108.27875 151.60875 -108.9375 152.4375 C-111.16072838 155.19969283 -113.57712683 157.27968758 -116.28515625 159.546875 C-120.38183909 163.01832378 -123.884346 166.99009666 -127.4375 171 C-129.93939683 173.80528299 -132.37506961 176.46404677 -135.3125 178.8125 C-138.05304975 180.88586088 -138.05304975 180.88586088 -140 183.5 C-142.36043197 186.45053996 -145.10151737 188.58459781 -148 191 C-148.928125 192.175625 -148.928125 192.175625 -149.875 193.375 C-152.32803877 196.40522436 -155.07887388 198.76609052 -158.03515625 201.29296875 C-160.48498095 203.42134528 -162.73939427 205.67290586 -165 208 C-165.99 208.99 -165.99 208.99 -167 210 C-167.30023008 212.0577541 -167.30023008 212.0577541 -167.24609566 214.46278572 C-167.25007775 215.40728462 -167.25405985 216.35178353 -167.25816262 217.32490361 C-167.25233693 218.36963396 -167.24651125 219.41436432 -167.24050903 220.49075317 C-167.24221788 221.59502116 -167.24392673 222.69928915 -167.24568737 223.8370198 C-167.24899926 227.56214684 -167.23795061 231.28709641 -167.22705078 235.01220703 C-167.22648703 237.67257088 -167.22671431 240.33292364 -167.22793579 242.99328613 C-167.22898605 248.73366277 -167.22269479 254.47399405 -167.21146011 260.21435928 C-167.19522709 268.51402417 -167.18999937 276.81366705 -167.18748413 285.11334608 C-167.18310357 298.57801791 -167.16978469 312.04266554 -167.15087891 325.50732422 C-167.13252944 338.58935423 -167.11836837 351.67137769 -167.10986328 364.75341797 C-167.10933783 365.55938133 -167.10881239 366.36534469 -167.10827102 367.19573118 C-167.105661 371.23888911 -167.10313357 375.28204708 -167.10064721 379.32520509 C-167.07990346 412.88349149 -167.04302766 446.44173293 -167 480 C-118.985 479.505 -118.985 479.505 -70 479 C-69.67 439.07 -69.34 399.14 -69 358 C-68.34 358 -67.68 358 -67 358 C-66.69707031 357.19175781 -66.39414063 356.38351562 -66.08203125 355.55078125 C-63.7697831 349.65276982 -61.93190453 345.17314998 -57 341 C-56.41992188 340.19820313 -55.83984375 339.39640625 -55.2421875 338.5703125 C-52.61520434 335.55889278 -50.33255722 334.41015728 -46.6875 332.8125 C-45.59824219 332.32394531 -44.50898438 331.83539063 -43.38671875 331.33203125 C-37.50172022 329.01740092 -32.30738363 327.75001111 -25.9699707 327.70947266 C-25.30547409 327.70275543 -24.64097748 327.69603821 -23.9563446 327.68911743 C-21.77941208 327.67026382 -19.60279013 327.66621923 -17.42578125 327.6640625 C-15.89511494 327.65762402 -14.36444983 327.6508949 -12.83378601 327.64389038 C-9.63045403 327.63194785 -6.42722961 327.62820625 -3.22387695 327.62939453 C0.84987422 327.62959714 4.92292325 327.60234227 8.9965086 327.56785011 C12.15813769 327.54543726 15.31960192 327.54156141 18.48130226 327.54261398 C19.98138654 327.54027778 21.48147677 327.53156803 22.98148155 327.51594925 C35.02398445 327.40232803 46.73453675 329.20631143 57 336 C59.1875 338.4375 59.1875 338.4375 61 341 C61.804375 341.680625 62.60875 342.36125 63.4375 343.0625 C67.26323985 347.44810422 68.97409365 352.59470945 71 358 C71.66 358 72.32 358 73 358 C73.33 397.93 73.66 437.86 74 479 C106.01 479.33 138.02 479.66 171 480 C171.13223395 445.6886816 171.24303347 411.37761015 171.30639198 377.06611367 C171.31389636 373.01681296 171.32166228 368.96751279 171.32958984 364.91821289 C171.33116371 364.11205845 171.33273757 363.30590402 171.33435912 362.47532066 C171.36047844 349.416231 171.40779211 336.35729957 171.46291678 323.29830382 C171.51899436 309.90199254 171.55234599 296.50576421 171.56453097 283.10934037 C171.57277034 274.84063641 171.59880773 266.57237963 171.6474988 258.3038133 C171.67917577 252.6363801 171.68880949 246.9691786 171.68100826 241.30166326 C171.6771589 238.02988801 171.68638708 234.75906171 171.71523285 231.48738861 C171.74497103 227.94146802 171.73795106 224.39747957 171.7215271 220.85151672 C171.73900415 219.81552489 171.7564812 218.77953306 171.77448785 217.71214753 C171.82825475 212.67089895 171.82825475 212.67089895 169.68424344 208.29526556 C167.90554063 206.74833286 167.90554063 206.74833286 165 205 C163.77621915 203.69988675 162.58324892 202.36937702 161.4375 201 C157.07421191 195.90314601 152.41507339 191.42005049 147.2578125 187.13671875 C145.31459823 185.29772531 143.62986243 183.43995748 141.89601135 181.40968323 C137.92138985 176.84527527 133.69862322 172.57214954 129.40600586 168.30834961 C128.57581436 167.47961838 127.74562286 166.65088715 126.89027405 165.79704285 C125.10011044 164.01066403 123.30879322 162.22544066 121.51643181 160.44126701 C118.67640797 157.61408172 115.83951325 154.78379185 113.0035553 151.95252991 C106.9845133 145.94453285 100.96123354 139.94079266 94.9375 133.9375 C88.42842251 127.45050111 81.92010649 120.96274864 75.41667277 114.47009093 C72.15136734 111.21053168 68.88217656 107.95490021 65.61228943 104.69993591 C63.89624431 102.98752471 62.18034021 101.27497217 60.46459961 99.56225586 C59.69300507 98.79582764 58.92141052 98.02939941 58.12643433 97.23974609 C54.32896776 93.44265044 50.68037551 89.59391289 47.2407465 85.4682703 C44.0342333 81.6737578 40.36329413 78.43874058 36.625 75.1875 C32.94476275 71.94742402 29.71218185 68.53173208 26.5390625 64.80078125 C23.19061629 60.88292921 19.4391883 57.5033494 15.5625 54.125 C12.08161667 51.08356373 9.14236313 47.95729333 6.38671875 44.25 C3.85060653 41.96392701 1.57875792 42.56713359 -0.96160889 44.46713257 Z " fill="#C1C1C1" transform="translate(254,0)"/>
<path d="M0 0 C3.90941058 1.52644325 5.60239772 3.87672443 8.1652832 7.13183594 C13.40585798 13.23481421 19.58266796 17.12431868 26.43823242 21.23535156 C42.2304019 30.80295405 56.92199387 41.52845239 71.1875 53.25 C71.83950709 53.7831238 72.49151418 54.31624761 73.16327906 54.86552668 C106.43823905 82.24559594 126.91580869 113.53776073 131.20898438 156.89990234 C134.70248446 193.77716019 134.05637815 230.9615169 132.9375 267.9375 C132.89037666 269.53169526 132.84326755 271.12589095 132.79617262 272.72008705 C131.55437128 314.22960306 129.14309732 355.5899651 126 397 C93.33 397 60.66 397 27 397 C26.93941406 388.53988281 26.87882812 380.07976562 26.81640625 371.36328125 C26.77077063 365.32760476 26.72453011 359.29193528 26.67741489 353.25627041 C26.61644126 345.4349432 26.55690119 337.61361361 26.50268555 329.79223633 C26.45517395 322.9387406 26.40265399 316.08529789 26.34705925 309.23186302 C26.32665539 306.61517773 26.30793906 303.99847872 26.29092598 301.38176918 C26.26683858 297.72101504 26.23678962 294.0603553 26.20532227 290.3996582 C26.19668907 288.77154205 26.19668907 288.77154205 26.18788147 287.11053467 C26.17319824 285.61091942 26.17319824 285.61091942 26.15821838 284.08100891 C26.15176583 283.2154453 26.14531328 282.34988169 26.1386652 281.45808887 C25.99394638 278.89268881 25.56239939 276.5043313 25 274 C25.66 274 26.32 274 27 274 C27.8864009 277.04594393 28.12365326 279.75515962 28.12025452 282.92279053 C28.12162918 283.91274521 28.12300385 284.90269989 28.12442017 285.9226532 C28.12082489 287.0023085 28.11722961 288.08196381 28.11352539 289.19433594 C28.11367142 290.3360878 28.11381744 291.47783966 28.1139679 292.65419006 C28.11327081 296.43093765 28.10548787 300.20763602 28.09765625 303.984375 C28.09579135 306.60182671 28.09436779 309.21927877 28.09336853 311.83673096 C28.09026154 318.02377572 28.08205667 324.2108028 28.07201904 330.39783978 C28.0597413 338.13371271 28.0542704 345.86958851 28.04882812 353.60546875 C28.0390909 367.40365961 28.01905827 381.20181188 28 395 C59.68 395 91.36 395 124 395 C124.13223431 360.81607561 124.24303369 326.63239908 124.30639198 292.44829594 C124.31389636 288.4140165 124.32166228 284.37973761 124.32958984 280.34545898 C124.33195064 279.14071325 124.33195064 279.14071325 124.33435912 277.91162922 C124.36047833 264.9010382 124.40779195 251.89060599 124.46291678 238.88010923 C124.51899465 225.53351853 124.55234605 212.18701109 124.56453097 198.84030741 C124.57277028 190.6023122 124.59880734 182.36476582 124.6474988 174.12690874 C124.67917613 168.48050013 124.68880941 162.8343241 124.68100826 157.18783305 C124.67715895 153.92820809 124.68638659 150.66953562 124.71523285 147.4100132 C124.74497178 143.87722748 124.73795082 140.346381 124.7215271 136.81355286 C124.74774267 135.26540153 124.74774267 135.26540153 124.77448785 133.68597442 C124.82675359 128.65888457 124.82675359 128.65888457 122.68424344 124.29757631 C120.90526074 122.75073893 120.90526074 122.75073893 118 121 C116.77621915 119.69988675 115.58324892 118.36937702 114.4375 117 C110.07421191 111.90314601 105.41507339 107.42005049 100.2578125 103.13671875 C98.31463201 101.29775728 96.6305466 99.44012979 94.89700317 97.40968323 C90.91947876 92.84197391 86.69017417 88.57081817 82.39013672 84.30834961 C81.55833893 83.47961838 80.72654114 82.65088715 79.86953735 81.79704285 C78.07606984 80.01068981 76.28147738 78.22546561 74.48586655 76.44126701 C71.64155436 73.6144451 68.80077867 70.78411648 65.96121216 67.95252991 C57.89150168 59.90684126 49.81581246 51.86716932 41.73583984 43.83178711 C37.26104237 39.3816055 32.78990067 34.92778263 28.32258427 30.47009093 C25.96505335 28.11800395 23.60505363 25.7685246 21.24154282 23.42243767 C18.60679022 20.80694521 15.97829635 18.18530941 13.35107422 15.56225586 C12.18828949 14.41261353 12.18828949 14.41261353 11.00201416 13.23974609 C6.83928125 9.06947695 3.27192217 4.90419826 0 0 Z " fill="#F5F5F5" transform="translate(300,84)"/>
<path d="M0 0 C0.66 0.33 1.32 0.66 2 1 C1.34 1.66 0.68 2.32 0 3 C-0.30020344 5.05085948 -0.30020344 5.05085948 -0.24609566 7.44716835 C-0.25007775 8.38818386 -0.25405985 9.32919936 -0.25816262 10.29873049 C-0.25233693 11.3395699 -0.24651125 12.38040931 -0.24050903 13.45278931 C-0.24221788 14.55297374 -0.24392673 15.65315818 -0.24568737 16.78668153 C-0.24899923 20.49798927 -0.23795066 24.20911889 -0.22705078 27.92041016 C-0.22648703 30.57092193 -0.22671431 33.22142257 -0.22793579 35.87193298 C-0.22898604 41.59102877 -0.22269483 47.31007903 -0.21146011 53.02916336 C-0.19522703 61.29805916 -0.18999936 69.56693288 -0.18748413 77.83584289 C-0.18310358 91.25060046 -0.16978472 104.66533375 -0.15087891 118.08007812 C-0.13252942 131.11360553 -0.11836836 144.14712635 -0.10986328 157.18066406 C-0.10933783 157.98364043 -0.10881239 158.78661679 -0.10827102 159.61392577 C-0.105661 163.64209963 -0.10313357 167.67027353 -0.10064721 171.69844747 C-0.07990349 205.13231982 -0.04302771 238.56614705 0 272 C31.68 272 63.36 272 96 272 C95.98839844 263.60046875 95.97679687 255.2009375 95.96484375 246.546875 C95.95908626 240.55753482 95.95395969 234.56819671 95.94974613 228.57885551 C95.94420046 220.81574773 95.93715512 213.05265067 95.92456055 205.28955078 C95.91353116 198.48796737 95.90771938 191.68639557 95.90512276 184.88480377 C95.90327172 182.28681506 95.89965724 179.68882699 95.89426994 177.0908432 C95.88703604 173.45866003 95.88601006 169.82652513 95.88647461 166.19433594 C95.88287933 165.11468063 95.87928406 164.03502533 95.87557983 162.9226532 C95.8769545 161.93269852 95.87832916 160.94274384 95.87974548 159.92279053 C95.87882369 159.06367947 95.8779019 158.20456841 95.87695217 157.31942368 C95.99567845 155.08146027 96.37531337 153.14661384 97 151 C97.66 151 98.32 151 99 151 C99.04125 150.21625 99.0825 149.4325 99.125 148.625 C100.34986344 143.55056575 102.74738105 139.09409251 106 135 C106.99 135 107.98 135 109 135 C108.41992188 135.74830078 108.41992188 135.74830078 107.828125 136.51171875 C101.51200393 145.21983617 97.92666532 156.04874289 97.84178162 166.85322571 C97.8319928 167.80248428 97.82220398 168.75174286 97.81211853 169.72976685 C97.80636307 170.75907318 97.8006076 171.78837952 97.79467773 172.84887695 C97.78477814 173.94200699 97.77487854 175.03513702 97.76467896 176.16139221 C97.73312121 179.77033328 97.70832905 183.37928751 97.68359375 186.98828125 C97.66301929 189.49220622 97.64202269 191.99612775 97.62062073 194.50004578 C97.57108822 200.41432196 97.52580973 206.328621 97.48259836 212.24294585 C97.41961886 220.82146434 97.34801996 229.39991165 97.27747345 237.97837067 C97.17952801 249.98554576 97.09062798 261.9927574 97 274 C64.33 274 31.66 274 -2 274 C-2.04405856 239.38284854 -2.08099929 204.76572419 -2.10213066 170.14855314 C-2.10463219 166.06534397 -2.10722082 161.98213486 -2.10986328 157.89892578 C-2.1103879 157.08600318 -2.11091252 156.27308059 -2.11145304 155.43552397 C-2.12016503 142.25808495 -2.13593935 129.08066331 -2.15430559 115.90323462 C-2.1729826 102.39053776 -2.18411205 88.87785003 -2.18817699 75.3651408 C-2.19092663 67.02136346 -2.19962336 58.67763524 -2.21583293 50.33387302 C-2.2263727 44.61884969 -2.22960748 38.9038519 -2.22700275 33.18881954 C-2.22571675 29.88734875 -2.22882198 26.58598266 -2.23841095 23.28452301 C-2.24828345 19.71183897 -2.24599716 16.13936936 -2.24050903 12.56668091 C-2.24633472 11.51416865 -2.2521604 10.4616564 -2.25816262 9.37724984 C-2.25418052 8.42578414 -2.25019842 7.47431845 -2.24609566 6.49402046 C-2.2468551 5.66850846 -2.24761454 4.84299647 -2.24839699 3.99246895 C-2 2 -2 2 0 0 Z " fill="#F1F1F1" transform="translate(88,207)"/>
<path d="M0 0 C1.2816806 -0.00953201 2.56336121 -0.01906403 3.88388062 -0.02888489 C5.28017199 -0.02862342 6.67646338 -0.02768619 8.07275391 -0.02612305 C9.5099805 -0.03001214 10.94720596 -0.03434725 12.38442993 -0.03910828 C15.39548468 -0.04656437 18.40642218 -0.04628405 21.41748047 -0.04101562 C25.26648557 -0.03522704 29.11500851 -0.05213968 32.96393394 -0.0753603 C35.9323098 -0.09013062 38.90057049 -0.09096479 41.86897659 -0.08785057 C43.28748147 -0.0883623 44.70599305 -0.0935722 46.12446213 -0.10366249 C48.11288497 -0.11606979 50.10140545 -0.10727248 52.08984375 -0.09765625 C53.21917328 -0.09828568 54.34850281 -0.0989151 55.51205444 -0.0995636 C60.41009586 0.48007019 63.65258806 2.17008702 66.98681641 5.7746582 C69.46344254 9.44373396 69.80059013 12.16454219 69.81234741 16.48565674 C69.81780075 17.56509048 69.82325409 18.64452423 69.82887268 19.75666809 C69.82991501 20.94113022 69.83095734 22.12559235 69.83203125 23.34594727 C69.83711197 24.5933519 69.84219269 25.84075653 69.84742737 27.1259613 C69.85814229 29.84004382 69.86714 32.55407501 69.8735466 35.26816559 C69.88423551 39.56340105 69.90448358 43.85855799 69.92666626 48.15374756 C69.98855781 60.36800532 70.04256847 72.58225869 70.07568359 84.79663086 C70.09405184 91.54209609 70.12301612 98.28742993 70.1636883 105.03279853 C70.184723 108.60055555 70.20021051 112.16814725 70.20249557 115.73596954 C70.20504979 119.71938079 70.23055017 123.70246847 70.2578125 127.68579102 C70.25480637 128.86215622 70.25180023 130.03852142 70.248703 131.25053406 C70.33068089 139.31097353 71.35222863 144.93883942 76.67431641 151.2746582 C73.02209243 150.05725021 70.90072751 147.68813071 68.74696732 144.56364632 C66.53204531 139.83710379 67.0051056 134.67168617 67.0625 129.54980469 C67.05683517 128.28070251 67.05117035 127.01160034 67.04533386 125.70404053 C67.0331983 122.9549047 67.03656967 120.20639057 67.05216599 117.45727348 C67.07656738 113.10724912 67.06495423 108.75776455 67.04849243 104.4077301 C67.02404232 96.74411441 67.02978383 89.08074634 67.04229736 81.41711426 C67.06090607 69.87732031 67.05599237 58.33757335 67.02226317 46.79781395 C67.01077141 42.47656143 67.01515698 38.15570473 67.03228354 33.83447444 C67.0382886 31.79313019 67.03755588 29.75191936 67.03388977 27.71057129 C67.02965483 25.2259911 67.03613837 22.74135959 67.05549622 20.2568512 C67.13122668 12.27460069 67.13122668 12.27460069 63.67431641 5.2746582 C59.55405197 2.54654399 56.28517586 1.89737838 51.39697266 1.88647461 C50.17550537 1.87701813 48.95403809 1.86756165 47.69555664 1.8578186 C46.38917236 1.8638913 45.08278809 1.86996399 43.73681641 1.8762207 C42.36970871 1.87419716 41.00260207 1.87128338 39.63549805 1.86752319 C36.77756419 1.86311299 33.91991262 1.86948837 31.06201172 1.88354492 C27.41031928 1.90063648 23.75928844 1.89078822 20.10762024 1.87282753 C17.28677442 1.86195409 14.46608381 1.86545223 11.64523315 1.87321091 C9.64784309 1.87616738 7.65044684 1.86710333 5.65307617 1.8578186 C3.82087524 1.87200333 3.82087524 1.87200333 1.95166016 1.88647461 C0.34665649 1.89005478 0.34665649 1.89005478 -1.29077148 1.89370728 C-4.96055623 2.35434925 -7.23777354 3.23008766 -10.32568359 5.2746582 C-14.539037 10.73143253 -13.76590087 17.40352963 -13.75805664 23.98120117 C-13.76824829 25.25979507 -13.77843994 26.53838898 -13.78894043 27.85572815 C-13.81645255 31.34908591 -13.82578698 34.8422809 -13.8317945 38.33573294 C-13.84119334 41.99131275 -13.86739791 45.64677171 -13.89179993 49.30227661 C-13.93542722 56.21879117 -13.96399727 63.13528222 -13.98712331 70.0518924 C-14.01419525 77.92861399 -14.0581055 85.80521376 -14.10341203 93.68184829 C-14.19620427 109.87938979 -14.26790974 126.07695314 -14.32568359 142.2746582 C-14.98568359 142.6046582 -15.64568359 142.9346582 -16.32568359 143.2746582 C-16.31187279 125.77630306 -16.26962283 108.27827832 -16.19359303 90.78008842 C-16.15895208 82.65520099 -16.13358869 74.53048306 -16.13012695 66.40551758 C-16.12708579 59.32308491 -16.10657518 52.24095418 -16.06515902 45.15863812 C-16.04384072 41.40913212 -16.03122213 37.66005525 -16.0395298 33.91048813 C-16.04848088 29.72269905 -16.01842708 25.53605481 -15.98510742 21.34838867 C-15.99373306 20.10761063 -16.0023587 18.86683258 -16.01124573 17.5884552 C-15.88602742 8.21675552 -15.88602742 8.21675552 -13.0344696 4.58255005 C-8.50209449 0.72095614 -5.97680952 0.02441834 0 0 Z " fill="#F6F6F6" transform="translate(229.32568359375,356.725341796875)"/>
<path d="M0 0 C0.99 0.495 0.99 0.495 2 1 C-3.22007105 7.06250327 -8.53316229 12.72801793 -14.5625 18 C-17.75808931 20.81190836 -20.35150933 23.66802787 -23 27 C-24.20421109 28.08551424 -25.42727695 29.15025311 -26.662076 30.2008419 C-30.7248898 33.72028517 -34.5534456 37.41568773 -38.34428406 41.22402954 C-39.03771198 41.91660303 -39.73113989 42.60917653 -40.44558078 43.3227371 C-42.74694086 45.62246233 -45.0447306 47.92572069 -47.3425293 50.22900391 C-49.00038525 51.8871422 -50.65846197 53.5450598 -52.31674194 55.20277405 C-56.8042396 59.68998545 -61.28865243 64.18026826 -65.77251029 68.67111635 C-69.99360724 72.89784456 -74.21702308 77.12225391 -78.44042287 81.34668081 C-86.80672381 89.71516618 -95.17079351 98.08587791 -103.53344727 106.45800781 C-111.64034969 114.57408691 -119.74829932 122.68911748 -127.85766602 130.80273438 C-128.35753946 131.30287055 -128.85741291 131.80300672 -129.37243404 132.31829853 C-131.88110397 134.82827389 -134.38979473 137.33822843 -136.89849603 139.84817243 C-154.18183474 157.14011431 -171.46296876 174.4342576 -188.74180603 191.73069763 C-189.83464023 192.82464122 -189.83464023 192.82464122 -190.94955188 193.94068468 C-192.28926051 195.28176573 -193.62895567 196.62286024 -194.96863383 197.96397173 C-196.12575603 199.12229585 -197.28304967 200.28044874 -198.44055688 201.43838811 C-199.45432611 202.45356722 -200.46694613 203.46989571 -201.47822154 204.48755908 C-203.69831481 206.71911801 -205.92545592 208.83494124 -208.375 210.8125 C-211.73274793 213.64468739 -214.53777899 216.78682734 -217.3828125 220.125 C-219.47038335 222.545372 -221.71197709 224.76917766 -224 227 C-225.16801776 228.16531401 -226.33458984 229.33207818 -227.5 230.5 C-228.098125 231.09683594 -228.69625 231.69367188 -229.3125 232.30859375 C-230.71781711 233.71716391 -232.110531 235.13829427 -233.5 236.5625 C-235.41398891 238.42863919 -237.32109786 240.11460757 -239.375 241.8125 C-242.80713982 244.69639867 -245.65568986 247.92273953 -248.51953125 251.36328125 C-250 253 -250 253 -252 254 C-248.82064831 247.18073634 -243.51623166 242.43281986 -237.87109375 237.609375 C-233.95965099 234.24504427 -230.56657762 230.50929894 -227.1875 226.625 C-223.94865883 222.94616531 -220.53478091 219.71427385 -216.8046875 216.54296875 C-213.08379332 213.36168476 -209.85524982 209.84211183 -206.6875 206.125 C-203.64761739 202.60827306 -200.3734199 199.58946437 -196.83984375 196.578125 C-193.11113208 193.37982454 -189.86656324 189.85538727 -186.6875 186.125 C-183.64640433 182.60686971 -180.37040594 179.58731924 -176.8359375 176.57421875 C-172.93229291 173.22705115 -169.55508583 169.49608896 -166.1875 165.625 C-162.94865883 161.94616531 -159.53478091 158.71427385 -155.8046875 155.54296875 C-152.08379332 152.36168476 -148.85524982 148.84211183 -145.6875 145.125 C-142.64640433 141.60686971 -139.37040594 138.58731924 -135.8359375 135.57421875 C-131.2176911 131.61431811 -127.29284336 127.09395277 -123.35546875 122.4765625 C-121.43334145 120.45561937 -119.51858623 118.69385271 -117.4037323 116.8890686 C-112.80013131 112.88194726 -108.48908421 108.62252864 -104.18481445 104.29833984 C-102.92226837 103.0360128 -102.92226837 103.0360128 -101.63421631 101.7481842 C-99.34955386 99.46294874 -97.0671113 97.17552491 -94.78567529 94.88706923 C-92.38621023 92.48129898 -89.98386123 90.07841188 -87.58183289 87.67520142 C-83.03863253 83.12890499 -78.49798352 78.58006938 -73.95827121 74.03029025 C-68.80603156 68.86687162 -63.65095366 63.70629067 -58.49562895 58.54595256 C-49.67967063 49.72132631 -40.86581596 40.89460471 -32.05436707 32.06547546 C-30.64284475 30.6511486 -29.2311466 29.23699718 -27.8192234 27.82307053 C-26.6953039 26.69677426 -25.57229848 25.56956399 -24.45078087 24.44087601 C-21.86714892 21.84375858 -19.21176834 19.393108 -16.4375 17 C-13.24602905 14.19298017 -10.62362179 11.34737952 -8 8 C-6.97602733 7.1043581 -5.93307442 6.23008652 -4.875 5.375 C-1.88146585 3.13441618 -1.88146585 3.13441618 0 0 Z " fill="#F2F2F2" transform="translate(254,0)"/>
<path d="M0 0 C3.7402322 1.74943506 6.1610249 3.9029139 9.09765625 6.83203125 C9.57319443 7.30565598 10.0487326 7.7792807 10.53868103 8.26725769 C11.54037308 9.26759267 12.53955959 10.27044214 13.53637695 11.27563477 C15.0540055 12.80394571 16.58196967 14.32132809 18.11132812 15.83789062 C19.08657916 16.8144638 20.06120931 17.79165748 21.03515625 18.76953125 C21.9156665 19.65229736 22.79617676 20.53506348 23.70336914 21.44458008 C25.86230356 23.84678764 27.45332303 26.17484677 29 29 C25.9350908 27.66198588 24.14639067 26.29092019 22.0625 23.6875 C17.53959028 18.21950466 12.45287055 13.58993111 7.0859375 8.96484375 C5.10404231 7.0980024 3.59951516 5.19227666 2 3 C1.99940291 3.54575782 1.99880582 4.09151564 1.99819064 4.65381157 C1.96230139 36.99554722 1.90566973 69.33717038 1.82207905 101.67881603 C1.81206152 105.56159312 1.8022174 109.44437063 1.79248047 113.32714844 C1.7905391 114.1001438 1.78859772 114.87313916 1.78659752 115.66955863 C1.75557131 128.18792943 1.73859514 140.70628189 1.72680578 153.2246839 C1.71439742 166.06848616 1.6869032 178.91219215 1.64538693 191.75593364 C1.62024241 199.68206895 1.60688341 207.60804462 1.60857043 215.53422038 C1.60860368 221.61071309 1.58765402 227.68694808 1.55883217 233.76338005 C1.55029983 236.2570844 1.5486057 238.75082277 1.55419731 241.24453545 C1.56080824 244.64532593 1.5429848 248.04513924 1.51898193 251.4458313 C1.52674235 252.43610986 1.53450277 253.42638842 1.54249835 254.44667542 C1.46988101 260.24552324 0.88126019 263.59061287 -3 268 C-5.25 268.875 -5.25 268.875 -7 269 C-6.34 268.01 -5.68 267.02 -5 266 C-4.34 266 -3.68 266 -3 266 C-0.92750523 260.02494297 -0.70919519 254.61900278 -0.7215271 248.32557678 C-0.7157347 247.26195575 -0.7099423 246.19833471 -0.70397437 245.10248274 C-0.68699362 241.54493482 -0.68409947 237.98751679 -0.68115234 234.42993164 C-0.67185286 231.87720421 -0.66168416 229.32447982 -0.65071106 226.77175903 C-0.62905532 221.2792201 -0.61343837 215.786717 -0.60334396 210.29414558 C-0.5887388 202.35288912 -0.56319685 194.41169722 -0.53501268 186.47047871 C-0.48957803 173.58539811 -0.45294949 160.70030819 -0.421875 147.81518555 C-0.39167582 135.300846 -0.35731927 122.78652922 -0.31738281 110.2722168 C-0.31369049 109.11452761 -0.31369049 109.11452761 -0.30992357 107.93345077 C-0.29754871 104.06147053 -0.28509222 100.18949057 -0.27259517 96.31751072 C-0.1690772 64.21170473 -0.07985753 32.10587387 0 0 Z " fill="#E7E7E7" transform="translate(454,239)"/>
<path d="M0 0 C6.83362837 3.11309737 11.92065429 8.68556841 16.6484375 14.38671875 C19.89807797 18.26562487 23.6326542 21.56007581 27.4375 24.875 C30.82864456 27.86123178 33.8087787 30.94389711 36.68359375 34.421875 C39.89534106 38.27215961 43.60266917 41.53165728 47.375 44.8125 C51.05383469 48.05134117 54.28572615 51.46521909 57.45703125 55.1953125 C60.63831524 58.91620668 64.15788817 62.14475018 67.875 65.3125 C71.39172694 68.35238261 74.41053563 71.6265801 77.421875 75.16015625 C80.62017546 78.88886792 84.14461273 82.13343676 87.875 85.3125 C91.39119589 88.35192357 94.41089469 91.62361994 97.41796875 95.16015625 C99.49107978 97.5711076 101.72390894 99.78081121 104 102 C105.16801776 103.16531401 106.33458984 104.33207818 107.5 105.5 C108.098125 106.09683594 108.69625 106.69367188 109.3125 107.30859375 C110.71781711 108.71716391 112.110531 110.13829427 113.5 111.5625 C115.41398891 113.42863919 117.32109786 115.11460757 119.375 116.8125 C122.72288366 119.63636708 125.52250598 122.76588739 128.35546875 126.09765625 C130.4573106 128.529003 132.69365117 130.76354053 135 133 C134.67 133.66 134.34 134.32 134 135 C116.52554354 117.54886794 99.05392361 100.09490052 81.58570862 82.63752079 C73.47548586 74.53246197 65.3643252 66.42834586 57.25097656 58.32641602 C50.18225927 51.26764258 43.11528095 44.20713366 36.05041599 37.14450449 C32.30697947 33.40237558 28.56265723 29.66114238 24.81625366 25.92198372 C21.29461688 22.40710247 17.77529879 18.88991671 14.25779343 15.37090111 C12.96217499 14.07555921 11.66569066 12.78108276 10.36830521 11.48751068 C8.60562384 9.72975926 6.84600197 7.96900285 5.0871582 6.20741272 C4.56577113 5.68893849 4.04438406 5.17046426 3.50719738 4.63627869 C0 1.11412121 0 1.11412121 0 0 Z " fill="#F5F5F5" transform="translate(257,0)"/>
<path d="M0 0 C0.99 0.495 0.99 0.495 2 1 C1.61328125 1.49886719 1.2265625 1.99773437 0.828125 2.51171875 C-5.4774704 11.20532429 -9.07269005 22.02647344 -9.15821838 32.81526184 C-9.1680072 33.75610626 -9.17779602 34.69695068 -9.18788147 35.66630554 C-9.19363693 36.68626114 -9.1993924 37.70621674 -9.20532227 38.75708008 C-9.21522186 39.84045654 -9.22512146 40.92383301 -9.23532104 42.04003906 C-9.26687692 45.61651432 -9.2916702 49.19300286 -9.31640625 52.76953125 C-9.33698087 55.251036 -9.35797748 57.73253728 -9.37937927 60.21403503 C-9.43454739 66.74223015 -9.48397992 73.27045661 -9.53222656 79.79870605 C-9.5907098 87.63319458 -9.65751605 95.46761895 -9.72252655 103.30205536 C-9.82046989 115.20133525 -9.90937136 127.10065202 -10 139 C-42.01 139 -74.02 139 -107 139 C-107 138.67 -107 138.34 -107 138 C-75.32 138 -43.64 138 -11 138 C-11.01160156 129.60046875 -11.02320313 121.2009375 -11.03515625 112.546875 C-11.04091374 106.55753482 -11.04604031 100.56819671 -11.05025387 94.57885551 C-11.05579954 86.81574773 -11.06284488 79.05265067 -11.07543945 71.28955078 C-11.08646884 64.48796737 -11.09228062 57.68639557 -11.09487724 50.88480377 C-11.09672828 48.28681506 -11.10034276 45.68882699 -11.10573006 43.0908432 C-11.11296396 39.45866003 -11.11398994 35.82652513 -11.11352539 32.19433594 C-11.11712067 31.11468063 -11.12071594 30.03502533 -11.12442017 28.9226532 C-11.1230455 27.93269852 -11.12167084 26.94274384 -11.12025452 25.92279053 C-11.12117631 25.06367947 -11.1220981 24.20456841 -11.12304783 23.31942368 C-11.00432155 21.08146027 -10.62468663 19.14661384 -10 17 C-9.34 17 -8.68 17 -8 17 C-7.95875 16.21625 -7.9175 15.4325 -7.875 14.625 C-6.63136071 9.47278007 -3.8092402 3.8092402 0 0 Z " fill="#FBFBFB" transform="translate(195,341)"/>
<path d="M0 0 C0.66376648 -0.00671722 1.32753296 -0.01343445 2.01141357 -0.02035522 C4.21552964 -0.039414 6.41934169 -0.0432652 8.62353516 -0.04541016 C10.1613477 -0.05183944 11.69915901 -0.0585679 13.23696899 -0.06558228 C16.47018256 -0.07757946 19.70328918 -0.08126129 22.93652344 -0.08007812 C27.04965319 -0.07987634 31.16208096 -0.10701956 35.27504539 -0.14162254 C38.4581303 -0.16404853 41.64105155 -0.16791069 44.82420731 -0.16685867 C46.33824679 -0.16919722 47.85229201 -0.17792066 49.3662529 -0.19352341 C61.87460293 -0.31021581 74.23922845 1.48724997 84.53759766 9.29052734 C85.03259766 10.77552734 85.03259766 10.77552734 85.53759766 12.29052734 C83.28268017 11.18444223 81.07226168 10.03329617 78.87353516 8.81787109 C77.40787109 8.03089844 77.40787109 8.03089844 75.91259766 7.22802734 C74.95095703 6.70080078 73.98931641 6.17357422 72.99853516 5.63037109 C63.89941953 2.1078015 53.32376039 3.08569703 43.68603516 2.97412109 C42.17574557 2.95350514 40.66546114 2.93250762 39.15518188 2.91114807 C35.21307606 2.85640592 31.27092239 2.80678918 27.32873535 2.75830078 C23.29284494 2.70773236 19.25702254 2.6522323 15.22119141 2.59716797 C7.32671794 2.49017336 -0.56781305 2.38860243 -8.46240234 2.29052734 C-5.66505061 -0.50682439 -3.91967586 0.02484151 0 0 Z " fill="#EBEBEB" transform="translate(227.46240234375,326.70947265625)"/>
<path d="M0 0 C0.99 0.99 1.98 1.98 3 3 C1.88268494 3.38535164 1.88268494 3.38535164 0.74279785 3.77848816 C-2.12566108 5.05596348 -3.68996991 6.32622629 -5.88476562 8.54418945 C-6.60901733 9.26866776 -7.33326904 9.99314606 -8.07946777 10.73957825 C-9.23122498 11.91456123 -9.23122498 11.91456123 -10.40625 13.11328125 C-11.20857056 13.91984665 -12.01089111 14.72641205 -12.83752441 15.55741882 C-15.39881846 18.13548155 -17.94949918 20.72376331 -20.5 23.3125 C-22.21675419 25.04430776 -23.93419468 26.77543548 -25.65234375 28.50585938 C-29.49356519 32.37685248 -33.32727317 36.25514713 -37.15705872 40.13745117 C-38.74158623 41.73883689 -40.333303 43.33233675 -41.93041992 44.92114258 C-43.67860925 46.67716854 -45.25837173 48.44994686 -46.8125 50.375 C-49.64112301 53.72852213 -52.77786127 56.53122188 -56.11328125 59.37109375 C-58.53536643 61.46221077 -60.76932629 63.70736313 -63 66 C-64.33333333 67.33333333 -65.66666667 68.66666667 -67 70 C-67.66 69.67 -68.32 69.34 -69 69 C-46.23 46.23 -23.46 23.46 0 0 Z " fill="#F5F5F5" transform="translate(256,40)"/>
<path d="M0 0 C6.83362837 3.11309737 11.92065429 8.68556841 16.6484375 14.38671875 C19.89807797 18.26562487 23.6326542 21.56007581 27.4375 24.875 C30.82379001 27.85695688 33.80409307 30.93090233 36.66796875 34.41015625 C38.63376733 36.75643198 40.80907548 38.86525303 43 41 C44.66666667 42.66666667 46.33333333 44.33333333 48 46 C47.505 46.99 47.505 46.99 47 48 C40.86903708 41.89215875 34.74074247 35.78165665 28.61588287 29.66769505 C25.77209675 26.82913814 22.9273835 23.99152323 20.08056641 21.15600586 C17.33572084 18.4219878 14.59329142 15.68556796 11.85255432 12.94743156 C10.80398608 11.90071781 9.75453495 10.85488777 8.70420837 9.80993843 C7.23864274 8.35158142 5.77618532 6.89017634 4.31445312 5.42797852 C3.47950317 4.59524918 2.64455322 3.76251984 1.78430176 2.90455627 C0 1 0 1 0 0 Z " fill="#EFEFEF" transform="translate(257,0)"/>
<path d="M0 0 C3.78931611 1.57305863 6.21060815 3.95237028 9.09765625 6.83203125 C9.57319443 7.30565598 10.0487326 7.7792807 10.53868103 8.26725769 C11.54037308 9.26759267 12.53955959 10.27044214 13.53637695 11.27563477 C15.0540055 12.80394571 16.58196967 14.32132809 18.11132812 15.83789062 C19.08657916 16.8144638 20.06120931 17.79165748 21.03515625 18.76953125 C21.9156665 19.65229736 22.79617676 20.53506348 23.70336914 21.44458008 C25.86230356 23.84678764 27.45332303 26.17484677 29 29 C25.9350908 27.66198588 24.14639067 26.29092019 22.0625 23.6875 C17.56043207 18.24470146 12.49052255 13.60955613 7.18359375 8.96484375 C1.19080068 3.57240204 1.19080068 3.57240204 0 0 Z " fill="#F2F2F2" transform="translate(454,239)"/>
<path d="M0 0 C0 0.66 0 1.32 0 2 C-0.56847656 2.17015625 -1.13695312 2.3403125 -1.72265625 2.515625 C-8.1011388 4.51755275 -14.53202139 6.74355458 -19 12 C-19.66 11.67 -20.32 11.34 -21 11 C-18.01329669 6.70295382 -15.26182312 4.80083205 -10.5 2.6875 C-8.81390625 1.91986328 -8.81390625 1.91986328 -7.09375 1.13671875 C-4 0 -4 0 0 0 Z " fill="#E8E8E8" transform="translate(218,329)"/>
<path d="M0 0 C6.81263596 0.30278382 12.43196033 3.12741878 18 7 C18.33 7.99 18.66 8.98 19 10 C18.46503906 9.731875 17.93007813 9.46375 17.37890625 9.1875 C15.61790393 8.30844466 13.85451109 7.43417461 12.08984375 6.5625 C11.04957031 6.046875 10.00929688 5.53125 8.9375 5 C7.89464844 4.484375 6.85179687 3.96875 5.77734375 3.4375 C3 2 3 2 0 0 Z " fill="#F1F1F1" transform="translate(294,329)"/>
<path d="M0 0 C0.66 0.33 1.32 0.66 2 1 C-1.96 4.465 -1.96 4.465 -6 8 C-6.66 7.67 -7.32 7.34 -8 7 C-3.76744186 1.25581395 -3.76744186 1.25581395 0 0 Z " fill="#EEEEEE" transform="translate(205,333)"/>
</svg>
