<?xml version="1.0" encoding="UTF-8"?>
<svg width="1207px" height="196px" viewBox="0 0 1207 196" version="1.1" xmlns="http://www.w3.org/2000/svg" xmlns:xlink="http://www.w3.org/1999/xlink">
    <title>Untitled 12</title>
    <g id="Page-1" stroke="none" stroke-width="1" fill="none" fill-rule="evenodd">
        <path d="M303,1 C601.32,1 899.64,1 1207,1 C1207,65.68 1207,130.36 1207,197 C908.68,197 610.36,197 303,197 C303,132.32 303,67.64 303,1 Z" id="Path" fill="#FE5663" fill-rule="nonzero"></path>
        <path d="M677,25 C683.6,25 690.2,25 697,25 C697,25.66 697,26.32 697,27 C698.32,27 699.64,27 701,27 C701,27.66 701,28.32 701,29 C701.66,29 702.32,29 703,29 C703,29.66 703,30.32 703,31 C704.32,31 705.64,31 707,31 C707,31.66 707,32.32 707,33 C707.66,33 708.32,33 709,33 C709,33.66 709,34.32 709,35 C709.66,35 710.32,35 711,35 C711,36.32 711,37.64 711,39 C711.66,39 712.32,39 713,39 C713,39.66 713,40.32 713,41 C713.66,41 714.32,41 715,41 C715,41.66 715,42.32 715,43 C715.66,43 716.32,43 717,43 C717,44.32 717,45.64 717,47 C717.66,47 718.32,47 719,47 C719,48.32 719,49.64 719,51 C719.66,51 720.32,51 721,51 C721,52.98 721,54.96 721,57 C721.66,57 722.32,57 723,57 C723,58.98 723,60.96 723,63 C723.66,63 724.32,63 725,63 C725,63.66 725,64.32 725,65 C725.66,65 726.32,65 727,65 C727,66.98 727,68.96 727,71 C727.66,71 728.32,71 729,71 C729,71.66 729,72.32 729,73 C729.66,73 730.32,73 731,73 C731,72.34 731,71.68 731,71 C731.66,71 732.32,71 733,71 C733,69.02 733,67.04 733,65 C733.66,65 734.32,65 735,65 C735,63.02 735,61.04 735,59 C735.66,59 736.32,59 737,59 C737,57.68 737,56.36 737,55 C737.66,55 738.32,55 739,55 C739,53.02 739,51.04 739,49 C739.66,49 740.32,49 741,49 C741,47.68 741,46.36 741,45 C741.66,45 742.32,45 743,45 C743,44.34 743,43.68 743,43 C743.66,43 744.32,43 745,43 C745,41.68 745,40.36 745,39 C745.66,39 746.32,39 747,39 C747,38.34 747,37.68 747,37 C747.66,37 748.32,37 749,37 C749,36.34 749,35.68 749,35 C749.66,35 750.32,35 751,35 C751,34.34 751,33.68 751,33 C751.66,33 752.32,33 753,33 C753,32.34 753,31.68 753,31 C753.66,31 754.32,31 755,31 C755,30.34 755,29.68 755,29 C756.32,29 757.64,29 759,29 C759,28.34 759,27.68 759,27 C760.32,27 761.64,27 763,27 C763,26.34 763,25.68 763,25 C769.6,25 776.2,25 783,25 C783,25.66 783,26.32 783,27 C784.98,27 786.96,27 789,27 C789,27.66 789,28.32 789,29 C790.32,29 791.64,29 793,29 C793,29.66 793,30.32 793,31 C793.66,31 794.32,31 795,31 C795,31.66 795,32.32 795,33 C796.32,33 797.64,33 799,33 C799,33.66 799,34.32 799,35 C799.66,35 800.32,35 801,35 C801,36.32 801,37.64 801,39 C801.66,39 802.32,39 803,39 C803,39.66 803,40.32 803,41 C803.66,41 804.32,41 805,41 C805,42.32 805,43.64 805,45 C805.66,45 806.32,45 807,45 C807,46.32 807,47.64 807,49 C807.66,49 808.32,49 809,49 C809,50.32 809,51.64 809,53 C809.66,53 810.32,53 811,53 C811,56.3 811,59.6 811,63 C811.66,63 812.32,63 813,63 C813,65.64 813,68.28 813,71 C813.66,71 814.32,71 815,71 C815,96.74 815,122.48 815,149 C814.34,149 813.68,149 813,149 C813,158.24 813,167.48 813,177 C812.34,177 811.68,177 811,177 C811,177.66 811,178.32 811,179 C797.8,179 784.6,179 771,179 C771,178.34 771,177.68 771,177 C770.34,177 769.68,177 769,177 C769,154.56 769,132.12 769,109 C767.68,109 766.36,109 765,109 C765,109.66 765,110.32 765,111 C764.34,111 763.68,111 763,111 C763,112.98 763,114.96 763,117 C762.34,117 761.68,117 761,117 C761,119.64 761,122.28 761,125 C760.34,125 759.68,125 759,125 C759,126.98 759,128.96 759,131 C758.34,131 757.68,131 757,131 C757,132.98 757,134.96 757,137 C756.34,137 755.68,137 755,137 C755,138.32 755,139.64 755,141 C754.34,141 753.68,141 753,141 C753,142.98 753,144.96 753,147 C752.34,147 751.68,147 751,147 C751,147.66 751,148.32 751,149 C750.34,149 749.68,149 749,149 C749,150.32 749,151.64 749,153 C748.34,153 747.68,153 747,153 C747,153.66 747,154.32 747,155 C745.68,155 744.36,155 743,155 C743,155.66 743,156.32 743,157 C741.68,157 740.36,157 739,157 C739,157.66 739,158.32 739,159 C734.38,159 729.76,159 725,159 C725,158.34 725,157.68 725,157 C723.68,157 722.36,157 721,157 C721,156.34 721,155.68 721,155 C720.34,155 719.68,155 719,155 C719,154.34 719,153.68 719,153 C718.34,153 717.68,153 717,153 C717,152.34 717,151.68 717,151 C716.34,151 715.68,151 715,151 C715,150.34 715,149.68 715,149 C714.34,149 713.68,149 713,149 C713,148.34 713,147.68 713,147 C712.34,147 711.68,147 711,147 C711,145.68 711,144.36 711,143 C710.34,143 709.68,143 709,143 C709,141.68 709,140.36 709,139 C708.34,139 707.68,139 707,139 C707,137.68 707,136.36 707,135 C706.34,135 705.68,135 705,135 C705,133.68 705,132.36 705,131 C704.34,131 703.68,131 703,131 C703,127.7 703,124.4 703,121 C702.34,121 701.68,121 701,121 C701,119.02 701,117.04 701,115 C700.34,115 699.68,115 699,115 C699,113.68 699,112.36 699,111 C697.02,111 695.04,111 693,111 C693,132.78 693,154.56 693,177 C692.34,177 691.68,177 691,177 C691,177.66 691,178.32 691,179 C677.8,179 664.6,179 651,179 C651,178.34 651,177.68 651,177 C650.34,177 649.68,177 649,177 C649,140.7 649,104.4 649,67 C649.66,67 650.32,67 651,67 C651,63.04 651,59.08 651,55 C651.66,55 652.32,55 653,55 C653,53.02 653,51.04 653,49 C653.66,49 654.32,49 655,49 C655,47.68 655,46.36 655,45 C655.66,45 656.32,45 657,45 C657,43.68 657,42.36 657,41 C657.66,41 658.32,41 659,41 C659,40.34 659,39.68 659,39 C659.66,39 660.32,39 661,39 C661,37.68 661,36.36 661,35 C661.66,35 662.32,35 663,35 C663,34.34 663,33.68 663,33 C663.66,33 664.32,33 665,33 C665,32.34 665,31.68 665,31 C666.32,31 667.64,31 669,31 C669,30.34 669,29.68 669,29 C670.32,29 671.64,29 673,29 C673,28.34 673,27.68 673,27 C674.32,27 675.64,27 677,27 C677,26.34 677,25.68 677,25 Z" id="Path" fill="#FEFDFD" fill-rule="nonzero"></path>
        <path d="M827,25 C843.5,25 860,25 877,25 C877,25.66 877,26.32 877,27 C880.96,27 884.92,27 889,27 C889,27.66 889,28.32 889,29 C890.32,29 891.64,29 893,29 C893,29.66 893,30.32 893,31 C894.98,31 896.96,31 899,31 C899,31.66 899,32.32 899,33 C900.98,33 902.96,33 905,33 C905,33.66 905,34.32 905,35 C906.32,35 907.64,35 909,35 C909,35.66 909,36.32 909,37 C910.32,37 911.64,37 913,37 C913,37.66 913,38.32 913,39 C913.66,39 914.32,39 915,39 C915,39.66 915,40.32 915,41 C916.32,41 917.64,41 919,41 C919,41.66 919,42.32 919,43 C919.66,43 920.32,43 921,43 C921,43.66 921,44.32 921,45 C921.66,45 922.32,45 923,45 C923,46.32 923,47.64 923,49 C923.66,49 924.32,49 925,49 C925,49.66 925,50.32 925,51 C925.66,51 926.32,51 927,51 C927,52.32 927,53.64 927,55 C927.66,55 928.32,55 929,55 C929,56.32 929,57.64 929,59 C929.66,59 930.32,59 931,59 C931,67.58 931,76.16 931,85 C930.34,85 929.68,85 929,85 C929,86.32 929,87.64 929,89 C928.34,89 927.68,89 927,89 C927,90.32 927,91.64 927,93 C926.34,93 925.68,93 925,93 C925,93.66 925,94.32 925,95 C924.34,95 923.68,95 923,95 C923,95.66 923,96.32 923,97 C923.66,97 924.32,97 925,97 C925,97.66 925,98.32 925,99 C925.66,99 926.32,99 927,99 C927,99.66 927,100.32 927,101 C927.66,101 928.32,101 929,101 C929,101.66 929,102.32 929,103 C929.66,103 930.32,103 931,103 C931,104.32 931,105.64 931,107 C931.66,107 932.32,107 933,107 C933,108.32 933,109.64 933,111 C933.66,111 934.32,111 935,111 C935,111.66 935,112.32 935,113 C935.66,113 936.32,113 937,113 C937,121.58 937,130.16 937,139 C936.34,139 935.68,139 935,139 C935,140.98 935,142.96 935,145 C934.34,145 933.68,145 933,145 C933,146.32 933,147.64 933,149 C932.34,149 931.68,149 931,149 C931,150.32 931,151.64 931,153 C930.34,153 929.68,153 929,153 C929,153.66 929,154.32 929,155 C928.34,155 927.68,155 927,155 C927,155.66 927,156.32 927,157 C926.34,157 925.68,157 925,157 C925,157.66 925,158.32 925,159 C924.34,159 923.68,159 923,159 C923,159.66 923,160.32 923,161 C922.34,161 921.68,161 921,161 C921,161.66 921,162.32 921,163 C920.34,163 919.68,163 919,163 C919,163.66 919,164.32 919,165 C917.68,165 916.36,165 915,165 C915,165.66 915,166.32 915,167 C913.68,167 912.36,167 911,167 C911,167.66 911,168.32 911,169 C909.68,169 908.36,169 907,169 C907,169.66 907,170.32 907,171 C905.68,171 904.36,171 903,171 C903,171.66 903,172.32 903,173 C901.02,173 899.04,173 897,173 C897,173.66 897,174.32 897,175 C895.02,175 893.04,175 891,175 C891,175.66 891,176.32 891,177 C886.38,177 881.76,177 877,177 C877,177.66 877,178.32 877,179 C860.5,179 844,179 827,179 C827,178.34 827,177.68 827,177 C826.34,177 825.68,177 825,177 C825,127.5 825,78 825,27 C825.66,27 826.32,27 827,27 C827,26.34 827,25.68 827,25 Z" id="Path" fill="#FEFDFD" fill-rule="nonzero"></path>
        <path d="M517,27 C530.2,27 543.4,27 557,27 C557,27.66 557,28.32 557,29 C557.66,29 558.32,29 559,29 C559,35.6 559,42.2 559,49 C558.34,49 557.68,49 557,49 C557,65.5 557,82 557,99 C557.66,99 558.32,99 559,99 C559,102.3 559,105.6 559,109 C559.66,109 560.32,109 561,109 C561,112.3 561,115.6 561,119 C561.66,119 562.32,119 563,119 C563,120.32 563,121.64 563,123 C563.66,123 564.32,123 565,123 C565,123.66 565,124.32 565,125 C565.66,125 566.32,125 567,125 C567,125.66 567,126.32 567,127 C567.66,127 568.32,127 569,127 C569,127.66 569,128.32 569,129 C572.3,129 575.6,129 579,129 C579,128.34 579,127.68 579,127 C579.66,127 580.32,127 581,127 C581,125.68 581,124.36 581,123 C581.66,123 582.32,123 583,123 C583,121.68 583,120.36 583,119 C583.66,119 584.32,119 585,119 C585,117.02 585,115.04 585,113 C585.66,113 586.32,113 587,113 C587,111.02 587,109.04 587,107 C587.66,107 588.32,107 589,107 C589,100.4 589,93.8 589,87 C589.66,87 590.32,87 591,87 C591,67.86 591,48.72 591,29 C591.66,29 592.32,29 593,29 C593,28.34 593,27.68 593,27 C606.86,27 620.72,27 635,27 C635,27.66 635,28.32 635,29 C635.66,29 636.32,29 637,29 C637,29.66 637,30.32 637,31 C637.66,31 638.32,31 639,31 C639,55.42 639,79.84 639,105 C638.34,105 637.68,105 637,105 C637,107.64 637,110.28 637,113 C636.34,113 635.68,113 635,113 C635,116.3 635,119.6 635,123 C634.34,123 633.68,123 633,123 C633,124.32 633,125.64 633,127 C632.34,127 631.68,127 631,127 C631,129.64 631,132.28 631,135 C630.34,135 629.68,135 629,135 C629,136.32 629,137.64 629,139 C628.34,139 627.68,139 627,139 C627,140.32 627,141.64 627,143 C626.34,143 625.68,143 625,143 C625,144.32 625,145.64 625,147 C624.34,147 623.68,147 623,147 C623,148.32 623,149.64 623,151 C622.34,151 621.68,151 621,151 C621,152.32 621,153.64 621,155 C620.34,155 619.68,155 619,155 C619,155.66 619,156.32 619,157 C618.34,157 617.68,157 617,157 C617,158.32 617,159.64 617,161 C616.34,161 615.68,161 615,161 C615,161.66 615,162.32 615,163 C614.34,163 613.68,163 613,163 C613,163.66 613,164.32 613,165 C612.34,165 611.68,165 611,165 C611,165.66 611,166.32 611,167 C609.68,167 608.36,167 607,167 C607,167.66 607,168.32 607,169 C606.34,169 605.68,169 605,169 C605,169.66 605,170.32 605,171 C603.68,171 602.36,171 601,171 C601,171.66 601,172.32 601,173 C599.68,173 598.36,173 597,173 C597,173.66 597,174.32 597,175 C595.68,175 594.36,175 593,175 C593,175.66 593,176.32 593,177 C591.02,177 589.04,177 587,177 C587,177.66 587,178.32 587,179 C577.76,179 568.52,179 559,179 C559,178.34 559,177.68 559,177 C558.34,177 557.68,177 557,177 C557,176.34 557,175.68 557,175 C554.36,175 551.72,175 549,175 C549,174.34 549,173.68 549,173 C548.34,173 547.68,173 547,173 C547,172.34 547,171.68 547,171 C545.68,171 544.36,171 543,171 C543,170.34 543,169.68 543,169 C542.34,169 541.68,169 541,169 C541,168.34 541,167.68 541,167 C540.34,167 539.68,167 539,167 C539,166.34 539,165.68 539,165 C538.34,165 537.68,165 537,165 C537,164.34 537,163.68 537,163 C536.34,163 535.68,163 535,163 C535,162.34 535,161.68 535,161 C534.34,161 533.68,161 533,161 C533,160.34 533,159.68 533,159 C532.34,159 531.68,159 531,159 C531,158.34 531,157.68 531,157 C530.34,157 529.68,157 529,157 C529,155.68 529,154.36 529,153 C528.34,153 527.68,153 527,153 C527,151.68 527,150.36 527,149 C526.34,149 525.68,149 525,149 C525,147.68 525,146.36 525,145 C524.34,145 523.68,145 523,145 C523,143.68 523,142.36 523,141 C522.34,141 521.68,141 521,141 C521,139.68 521,138.36 521,137 C520.34,137 519.68,137 519,137 C519,133.7 519,130.4 519,127 C518.34,127 517.68,127 517,127 C517,125.02 517,123.04 517,121 C516.34,121 515.68,121 515,121 C515,115.72 515,110.44 515,105 C514.34,105 513.68,105 513,105 C513,81.24 513,57.48 513,33 C513.66,33 514.32,33 515,33 C515,31.68 515,30.36 515,29 C515.66,29 516.32,29 517,29 C517,28.34 517,27.68 517,27 Z" id="Path" fill="#FEFDFD" fill-rule="nonzero"></path>
        <path d="M395,27 C404.9,27 414.8,27 425,27 C425,27.66 425,28.32 425,29 C425.66,29 426.32,29 427,29 C427,29.66 427,30.32 427,31 C427.66,31 428.32,31 429,31 C429,43.54 429,56.08 429,69 C429.66,69 430.32,69 431,69 C431,70.32 431,71.64 431,73 C431.66,73 432.32,73 433,73 C433,74.98 433,76.96 433,79 C433.66,79 434.32,79 435,79 C435,79.66 435,80.32 435,81 C435.66,81 436.32,81 437,81 C437,81.66 437,82.32 437,83 C440.3,83 443.6,83 447,83 C447,81.68 447,80.36 447,79 C447.66,79 448.32,79 449,79 C449,78.34 449,77.68 449,77 C449.66,77 450.32,77 451,77 C451,75.68 451,74.36 451,73 C451.66,73 452.32,73 453,73 C453,71.02 453,69.04 453,67 C453.66,67 454.32,67 455,67 C455,65.02 455,63.04 455,61 C455.66,61 456.32,61 457,61 C457,51.1 457,41.2 457,31 C457.66,31 458.32,31 459,31 C459,30.34 459,29.68 459,29 C459.66,29 460.32,29 461,29 C461,28.34 461,27.68 461,27 C472.22,27 483.44,27 495,27 C495,27.66 495,28.32 495,29 C495.66,29 496.32,29 497,29 C497,29.66 497,30.32 497,31 C497.66,31 498.32,31 499,31 C499,32.98 499,34.96 499,37 C499.66,37 500.32,37 501,37 C501,64.06 501,91.12 501,119 C500.34,119 499.68,119 499,119 C499,122.96 499,126.92 499,131 C498.34,131 497.68,131 497,131 C497,132.32 497,133.64 497,135 C496.34,135 495.68,135 495,135 C495,136.98 495,138.96 495,141 C494.34,141 493.68,141 493,141 C493,142.32 493,143.64 493,145 C492.34,145 491.68,145 491,145 C491,146.32 491,147.64 491,149 C490.34,149 489.68,149 489,149 C489,150.32 489,151.64 489,153 C488.34,153 487.68,153 487,153 C487,153.66 487,154.32 487,155 C486.34,155 485.68,155 485,155 C485,155.66 485,156.32 485,157 C484.34,157 483.68,157 483,157 C483,158.32 483,159.64 483,161 C482.34,161 481.68,161 481,161 C481,161.66 481,162.32 481,163 C480.34,163 479.68,163 479,163 C479,163.66 479,164.32 479,165 C478.34,165 477.68,165 477,165 C477,165.66 477,166.32 477,167 C475.68,167 474.36,167 473,167 C473,167.66 473,168.32 473,169 C472.34,169 471.68,169 471,169 C471,169.66 471,170.32 471,171 C469.68,171 468.36,171 467,171 C467,171.66 467,172.32 467,173 C465.68,173 464.36,173 463,173 C463,173.66 463,174.32 463,175 C461.68,175 460.36,175 459,175 C459,175.66 459,176.32 459,177 C455.7,177 452.4,177 449,177 C449,177.66 449,178.32 449,179 C439.76,179 430.52,179 421,179 C421,178.34 421,177.68 421,177 C419.02,177 417.04,177 415,177 C415,176.34 415,175.68 415,175 C413.02,175 411.04,175 409,175 C409,174.34 409,173.68 409,173 C407.68,173 406.36,173 405,173 C405,172.34 405,171.68 405,171 C403.02,171 401.04,171 399,171 C399,170.34 399,169.68 399,169 C397.68,169 396.36,169 395,169 C395,168.34 395,167.68 395,167 C394.34,167 393.68,167 393,167 C393,166.34 393,165.68 393,165 C392.34,165 391.68,165 391,165 C391,162.36 391,159.72 391,157 C391.66,157 392.32,157 393,157 C393,155.02 393,153.04 393,151 C393.66,151 394.32,151 395,151 C395,149.02 395,147.04 395,145 C395.66,145 396.32,145 397,145 C397,143.68 397,142.36 397,141 C397.66,141 398.32,141 399,141 C399,139.68 399,138.36 399,137 C399.66,137 400.32,137 401,137 C401,136.34 401,135.68 401,135 C401.66,135 402.32,135 403,135 C403,134.34 403,133.68 403,133 C404.98,133 406.96,133 409,133 C409,133.66 409,134.32 409,135 C410.32,135 411.64,135 413,135 C413,135.66 413,136.32 413,137 C415.64,137 418.28,137 421,137 C421,137.66 421,138.32 421,139 C422.32,139 423.64,139 425,139 C425,139.66 425,140.32 425,141 C429.62,141 434.24,141 439,141 C439,140.34 439,139.68 439,139 C440.98,139 442.96,139 445,139 C445,138.34 445,137.68 445,137 C446.32,137 447.64,137 449,137 C449,136.34 449,135.68 449,135 C449.66,135 450.32,135 451,135 C451,134.34 451,133.68 451,133 C451.66,133 452.32,133 453,133 C453,132.34 453,131.68 453,131 C453.66,131 454.32,131 455,131 C455,130.34 455,129.68 455,129 C455.66,129 456.32,129 457,129 C457,127.02 457,125.04 457,123 C455.02,123 453.04,123 451,123 C451,123.66 451,124.32 451,125 C443.74,125 436.48,125 429,125 C429,124.34 429,123.68 429,123 C426.36,123 423.72,123 421,123 C421,122.34 421,121.68 421,121 C419.68,121 418.36,121 417,121 C417,120.34 417,119.68 417,119 C415.68,119 414.36,119 413,119 C413,118.34 413,117.68 413,117 C412.34,117 411.68,117 411,117 C411,116.34 411,115.68 411,115 C410.34,115 409.68,115 409,115 C409,114.34 409,113.68 409,113 C408.34,113 407.68,113 407,113 C407,112.34 407,111.68 407,111 C406.34,111 405.68,111 405,111 C405,110.34 405,109.68 405,109 C404.34,109 403.68,109 403,109 C403,108.34 403,107.68 403,107 C402.34,107 401.68,107 401,107 C401,106.34 401,105.68 401,105 C400.34,105 399.68,105 399,105 C399,103.68 399,102.36 399,101 C398.34,101 397.68,101 397,101 C397,99.68 397,98.36 397,97 C396.34,97 395.68,97 395,97 C395,95.68 395,94.36 395,93 C394.34,93 393.68,93 393,93 C393,91.02 393,89.04 393,87 C392.34,87 391.68,87 391,87 C391,83.7 391,80.4 391,77 C390.34,77 389.68,77 389,77 C389,61.82 389,46.64 389,31 C389.66,31 390.32,31 391,31 C391,30.34 391,29.68 391,29 C392.32,29 393.64,29 395,29 C395,28.34 395,27.68 395,27 Z" id="Path" fill="#FEFCFC" fill-rule="nonzero"></path>
        <path d="M1077,25 C1088.88,25 1100.76,25 1113,25 C1113,25.66 1113,26.32 1113,27 C1116.3,27 1119.6,27 1123,27 C1123,27.66 1123,28.32 1123,29 C1124.98,29 1126.96,29 1129,29 C1129,29.66 1129,30.32 1129,31 C1129.66,31 1130.32,31 1131,31 C1131,31.66 1131,32.32 1131,33 C1131.66,33 1132.32,33 1133,33 C1133,35.64 1133,38.28 1133,41 C1132.34,41 1131.68,41 1131,41 C1131,44.3 1131,47.6 1131,51 C1130.34,51 1129.68,51 1129,51 C1129,53.64 1129,56.28 1129,59 C1128.34,59 1127.68,59 1127,59 C1127,60.98 1127,62.96 1127,65 C1126.34,65 1125.68,65 1125,65 C1125,65.66 1125,66.32 1125,67 C1123.02,67 1121.04,67 1119,67 C1119,66.34 1119,65.68 1119,65 C1111.74,65 1104.48,65 1097,65 C1097,65.66 1097,66.32 1097,67 C1094.36,67 1091.72,67 1089,67 C1089,67.66 1089,68.32 1089,69 C1088.34,69 1087.68,69 1087,69 C1087,69.66 1087,70.32 1087,71 C1086.34,71 1085.68,71 1085,71 C1085,72.98 1085,74.96 1085,77 C1085.66,77 1086.32,77 1087,77 C1087,77.66 1087,78.32 1087,79 C1087.66,79 1088.32,79 1089,79 C1089,79.66 1089,80.32 1089,81 C1098.24,81 1107.48,81 1117,81 C1117,81.66 1117,82.32 1117,83 C1117.66,83 1118.32,83 1119,83 C1119,83.66 1119,84.32 1119,85 C1119.66,85 1120.32,85 1121,85 C1121,94.9 1121,104.8 1121,115 C1120.34,115 1119.68,115 1119,115 C1119,116.32 1119,117.64 1119,119 C1118.34,119 1117.68,119 1117,119 C1117,119.66 1117,120.32 1117,121 C1108.42,121 1099.84,121 1091,121 C1091,121.66 1091,122.32 1091,123 C1089.02,123 1087.04,123 1085,123 C1085,123.66 1085,124.32 1085,125 C1084.34,125 1083.68,125 1083,125 C1083,125.66 1083,126.32 1083,127 C1082.34,127 1081.68,127 1081,127 C1081,128.98 1081,130.96 1081,133 C1081.66,133 1082.32,133 1083,133 C1083,133.66 1083,134.32 1083,135 C1083.66,135 1084.32,135 1085,135 C1085,135.66 1085,136.32 1085,137 C1094.9,137 1104.8,137 1115,137 C1115,136.34 1115,135.68 1115,135 C1118.3,135 1121.6,135 1125,135 C1125,135.66 1125,136.32 1125,137 C1125.66,137 1126.32,137 1127,137 C1127,137.66 1127,138.32 1127,139 C1127.66,139 1128.32,139 1129,139 C1129,140.32 1129,141.64 1129,143 C1129.66,143 1130.32,143 1131,143 C1131,146.96 1131,150.92 1131,155 C1131.66,155 1132.32,155 1133,155 C1133,160.94 1133,166.88 1133,173 C1132.34,173 1131.68,173 1131,173 C1131,173.66 1131,174.32 1131,175 C1129.02,175 1127.04,175 1125,175 C1125,175.66 1125,176.32 1125,177 C1123.02,177 1121.04,177 1119,177 C1119,177.66 1119,178.32 1119,179 C1117.02,179 1115.04,179 1113,179 C1113,179.66 1113,180.32 1113,181 C1109.7,181 1106.4,181 1103,181 C1103,181.66 1103,182.32 1103,183 C1093.1,183 1083.2,183 1073,183 C1073,182.34 1073,181.68 1073,181 C1071.68,181 1070.36,181 1069,181 C1069,180.34 1069,179.68 1069,179 C1065.7,179 1062.4,179 1059,179 C1059,178.34 1059,177.68 1059,177 C1057.68,177 1056.36,177 1055,177 C1055,176.34 1055,175.68 1055,175 C1054.34,175 1053.68,175 1053,175 C1053,174.34 1053,173.68 1053,173 C1052.34,173 1051.68,173 1051,173 C1051,172.34 1051,171.68 1051,171 C1050.34,171 1049.68,171 1049,171 C1049,170.34 1049,169.68 1049,169 C1048.34,169 1047.68,169 1047,169 C1047,168.34 1047,167.68 1047,167 C1046.34,167 1045.68,167 1045,167 C1045,166.34 1045,165.68 1045,165 C1044.34,165 1043.68,165 1043,165 C1043,163.68 1043,162.36 1043,161 C1042.34,161 1041.68,161 1041,161 C1041,159.02 1041,157.04 1041,155 C1040.34,155 1039.68,155 1039,155 C1039,153.02 1039,151.04 1039,149 C1038.34,149 1037.68,149 1037,149 C1037,142.4 1037,135.8 1037,129 C1037.66,129 1038.32,129 1039,129 C1039,127.02 1039,125.04 1039,123 C1039.66,123 1040.32,123 1041,123 C1041,120.36 1041,117.72 1041,115 C1041.66,115 1042.32,115 1043,115 C1043,113.68 1043,112.36 1043,111 C1043.66,111 1044.32,111 1045,111 C1045,110.34 1045,109.68 1045,109 C1045.66,109 1046.32,109 1047,109 C1047,108.34 1047,107.68 1047,107 C1047.66,107 1048.32,107 1049,107 C1049,105.68 1049,104.36 1049,103 C1048.34,103 1047.68,103 1047,103 C1047,101.68 1047,100.36 1047,99 C1046.34,99 1045.68,99 1045,99 C1045,98.34 1045,97.68 1045,97 C1044.34,97 1043.68,97 1043,97 C1043,95.68 1043,94.36 1043,93 C1042.34,93 1041.68,93 1041,93 C1041,91.68 1041,90.36 1041,89 C1040.34,89 1039.68,89 1039,89 C1039,86.36 1039,83.72 1039,81 C1038.34,81 1037.68,81 1037,81 C1037,73.74 1037,66.48 1037,59 C1037.66,59 1038.32,59 1039,59 C1039,57.02 1039,55.04 1039,53 C1039.66,53 1040.32,53 1041,53 C1041,51.68 1041,50.36 1041,49 C1041.66,49 1042.32,49 1043,49 C1043,48.34 1043,47.68 1043,47 C1043.66,47 1044.32,47 1045,47 C1045,45.68 1045,44.36 1045,43 C1045.66,43 1046.32,43 1047,43 C1047,42.34 1047,41.68 1047,41 C1047.66,41 1048.32,41 1049,41 C1049,40.34 1049,39.68 1049,39 C1049.66,39 1050.32,39 1051,39 C1051,38.34 1051,37.68 1051,37 C1052.32,37 1053.64,37 1055,37 C1055,36.34 1055,35.68 1055,35 C1055.66,35 1056.32,35 1057,35 C1057,34.34 1057,33.68 1057,33 C1058.32,33 1059.64,33 1061,33 C1061,32.34 1061,31.68 1061,31 C1061.66,31 1062.32,31 1063,31 C1063,30.34 1063,29.68 1063,29 C1065.64,29 1068.28,29 1071,29 C1071,28.34 1071,27.68 1071,27 C1072.98,27 1074.96,27 1077,27 C1077,26.34 1077,25.68 1077,25 Z" id="Path" fill="#FEFDFD" fill-rule="nonzero"></path>
        <path d="M949,27 C962.86,27 976.72,27 991,27 C991,27.66 991,28.32 991,29 C992.32,29 993.64,29 995,29 C995,60.68 995,92.36 995,125 C1004.9,125 1014.8,125 1025,125 C1025,125.66 1025,126.32 1025,127 C1025.66,127 1026.32,127 1027,127 C1027,127.66 1027,128.32 1027,129 C1027.66,129 1028.32,129 1029,129 C1029,144.84 1029,160.68 1029,177 C1028.34,177 1027.68,177 1027,177 C1027,177.66 1027,178.32 1027,179 C1001.26,179 975.52,179 949,179 C949,178.34 949,177.68 949,177 C948.34,177 947.68,177 947,177 C947,128.16 947,79.32 947,29 C947.66,29 948.32,29 949,29 C949,28.34 949,27.68 949,27 Z" id="Path" fill="#FEFEFE" fill-rule="nonzero"></path>
        <path d="M865,119 C869.62,119 874.24,119 879,119 C879,119.66 879,120.32 879,121 C880.32,121 881.64,121 883,121 C883,121.66 883,122.32 883,123 C883.66,123 884.32,123 885,123 C885,123.66 885,124.32 885,125 C885.66,125 886.32,125 887,125 C887,125.66 887,126.32 887,127 C887.66,127 888.32,127 889,127 C889,130.3 889,133.6 889,137 C888.34,137 887.68,137 887,137 C887,137.66 887,138.32 887,139 C886.34,139 885.68,139 885,139 C885,140.32 885,141.64 885,143 C883.02,143 881.04,143 879,143 C879,143.66 879,144.32 879,145 C877.68,145 876.36,145 875,145 C875,145.66 875,146.32 875,147 C871.7,147 868.4,147 865,147 C865,137.76 865,128.52 865,119 Z" id="Path" fill="#FF5663" fill-rule="nonzero"></path>
        <path d="M865,63 C869.62,63 874.24,63 879,63 C879,63.66 879,64.32 879,65 C880.98,65 882.96,65 885,65 C885,65.66 885,66.32 885,67 C885.66,67 886.32,67 887,67 C887,67.66 887,68.32 887,69 C887.66,69 888.32,69 889,69 C889,72.3 889,75.6 889,79 C888.34,79 887.68,79 887,79 C887,79.66 887,80.32 887,81 C885.68,81 884.36,81 883,81 C883,81.66 883,82.32 883,83 C881.68,83 880.36,83 879,83 C879,83.66 879,84.32 879,85 C874.38,85 869.76,85 865,85 C865,77.74 865,70.48 865,63 Z" id="Path" fill="#FF5966" fill-rule="nonzero"></path>
        <path d="M993,29 C993.66,29 994.32,29 995,29 C995,60.68 995,92.36 995,125 C1004.9,125 1014.8,125 1025,125 C1025,125.66 1025,126.32 1025,127 C1014.44,127 1003.88,127 993,127 C993,94.66 993,62.32 993,29 Z" id="Path" fill="#FFAAB1" fill-rule="nonzero"></path>
        <path d="M865,119 C865.66,119 866.32,119 867,119 C867,127.58 867,136.16 867,145 C869.64,145 872.28,145 875,145 C875,145.66 875,146.32 875,147 C871.7,147 868.4,147 865,147 C865,137.76 865,128.52 865,119 Z" id="Path" fill="#FF99A1" fill-rule="nonzero"></path>
        <path d="M865,63 C869.62,63 874.24,63 879,63 C879,63.66 879,64.32 879,65 C875.04,65 871.08,65 867,65 C867,71.6 867,78.2 867,85 C866.34,85 865.68,85 865,85 C865,77.74 865,70.48 865,63 Z" id="Path" fill="#FF8A93" fill-rule="nonzero"></path>
        <path d="M451,123 C452.98,123 454.96,123 457,123 C457,124.98 457,126.96 457,129 C456.34,129 455.68,129 455,129 C455,127.68 455,126.36 455,125 C453.68,125 452.36,125 451,125 C451,124.34 451,123.68 451,123 Z" id="Path" fill="#FF818B" fill-rule="nonzero"></path>
        <circle id="Oval" fill="#4472C4" cx="56" cy="141.875" r="55.125"></circle>
        <circle id="Oval-Copy" fill="#FFFF00" cx="215.25" cy="56.125" r="55.125"></circle>
    </g>
</svg>