<?xml version="1.0" encoding="UTF-8"?>
<svg width="904px" height="196px" viewBox="0 0 904 196" version="1.1" xmlns="http://www.w3.org/2000/svg" xmlns:xlink="http://www.w3.org/1999/xlink">
    <title>Untitled 12</title>
    <g id="Page-1" stroke="none" stroke-width="1" fill="none" fill-rule="evenodd">
        <g id="46E825E6-61BE-4D28-96DE-719ABEFD5333" fill-rule="nonzero">
            <path d="M0,0 C298.32,0 596.64,0 904,0 C904,64.68 904,129.36 904,196 C605.68,196 307.36,196 0,196 C0,131.32 0,66.64 0,0 Z" id="Path" fill="#FE5663"></path>
            <path d="M374,24 C380.6,24 387.2,24 394,24 C394,24.66 394,25.32 394,26 C395.32,26 396.64,26 398,26 C398,26.66 398,27.32 398,28 C398.66,28 399.32,28 400,28 C400,28.66 400,29.32 400,30 C401.32,30 402.64,30 404,30 C404,30.66 404,31.32 404,32 C404.66,32 405.32,32 406,32 C406,32.66 406,33.32 406,34 C406.66,34 407.32,34 408,34 C408,35.32 408,36.64 408,38 C408.66,38 409.32,38 410,38 C410,38.66 410,39.32 410,40 C410.66,40 411.32,40 412,40 C412,40.66 412,41.32 412,42 C412.66,42 413.32,42 414,42 C414,43.32 414,44.64 414,46 C414.66,46 415.32,46 416,46 C416,47.32 416,48.64 416,50 C416.66,50 417.32,50 418,50 C418,51.98 418,53.96 418,56 C418.66,56 419.32,56 420,56 C420,57.98 420,59.96 420,62 C420.66,62 421.32,62 422,62 C422,62.66 422,63.32 422,64 C422.66,64 423.32,64 424,64 C424,65.98 424,67.96 424,70 C424.66,70 425.32,70 426,70 C426,70.66 426,71.32 426,72 C426.66,72 427.32,72 428,72 C428,71.34 428,70.68 428,70 C428.66,70 429.32,70 430,70 C430,68.02 430,66.04 430,64 C430.66,64 431.32,64 432,64 C432,62.02 432,60.04 432,58 C432.66,58 433.32,58 434,58 C434,56.68 434,55.36 434,54 C434.66,54 435.32,54 436,54 C436,52.02 436,50.04 436,48 C436.66,48 437.32,48 438,48 C438,46.68 438,45.36 438,44 C438.66,44 439.32,44 440,44 C440,43.34 440,42.68 440,42 C440.66,42 441.32,42 442,42 C442,40.68 442,39.36 442,38 C442.66,38 443.32,38 444,38 C444,37.34 444,36.68 444,36 C444.66,36 445.32,36 446,36 C446,35.34 446,34.68 446,34 C446.66,34 447.32,34 448,34 C448,33.34 448,32.68 448,32 C448.66,32 449.32,32 450,32 C450,31.34 450,30.68 450,30 C450.66,30 451.32,30 452,30 C452,29.34 452,28.68 452,28 C453.32,28 454.64,28 456,28 C456,27.34 456,26.68 456,26 C457.32,26 458.64,26 460,26 C460,25.34 460,24.68 460,24 C466.6,24 473.2,24 480,24 C480,24.66 480,25.32 480,26 C481.98,26 483.96,26 486,26 C486,26.66 486,27.32 486,28 C487.32,28 488.64,28 490,28 C490,28.66 490,29.32 490,30 C490.66,30 491.32,30 492,30 C492,30.66 492,31.32 492,32 C493.32,32 494.64,32 496,32 C496,32.66 496,33.32 496,34 C496.66,34 497.32,34 498,34 C498,35.32 498,36.64 498,38 C498.66,38 499.32,38 500,38 C500,38.66 500,39.32 500,40 C500.66,40 501.32,40 502,40 C502,41.32 502,42.64 502,44 C502.66,44 503.32,44 504,44 C504,45.32 504,46.64 504,48 C504.66,48 505.32,48 506,48 C506,49.32 506,50.64 506,52 C506.66,52 507.32,52 508,52 C508,55.3 508,58.6 508,62 C508.66,62 509.32,62 510,62 C510,64.64 510,67.28 510,70 C510.66,70 511.32,70 512,70 C512,95.74 512,121.48 512,148 C511.34,148 510.68,148 510,148 C510,157.24 510,166.48 510,176 C509.34,176 508.68,176 508,176 C508,176.66 508,177.32 508,178 C494.8,178 481.6,178 468,178 C468,177.34 468,176.68 468,176 C467.34,176 466.68,176 466,176 C466,153.56 466,131.12 466,108 C464.68,108 463.36,108 462,108 C462,108.66 462,109.32 462,110 C461.34,110 460.68,110 460,110 C460,111.98 460,113.96 460,116 C459.34,116 458.68,116 458,116 C458,118.64 458,121.28 458,124 C457.34,124 456.68,124 456,124 C456,125.98 456,127.96 456,130 C455.34,130 454.68,130 454,130 C454,131.98 454,133.96 454,136 C453.34,136 452.68,136 452,136 C452,137.32 452,138.64 452,140 C451.34,140 450.68,140 450,140 C450,141.98 450,143.96 450,146 C449.34,146 448.68,146 448,146 C448,146.66 448,147.32 448,148 C447.34,148 446.68,148 446,148 C446,149.32 446,150.64 446,152 C445.34,152 444.68,152 444,152 C444,152.66 444,153.32 444,154 C442.68,154 441.36,154 440,154 C440,154.66 440,155.32 440,156 C438.68,156 437.36,156 436,156 C436,156.66 436,157.32 436,158 C431.38,158 426.76,158 422,158 C422,157.34 422,156.68 422,156 C420.68,156 419.36,156 418,156 C418,155.34 418,154.68 418,154 C417.34,154 416.68,154 416,154 C416,153.34 416,152.68 416,152 C415.34,152 414.68,152 414,152 C414,151.34 414,150.68 414,150 C413.34,150 412.68,150 412,150 C412,149.34 412,148.68 412,148 C411.34,148 410.68,148 410,148 C410,147.34 410,146.68 410,146 C409.34,146 408.68,146 408,146 C408,144.68 408,143.36 408,142 C407.34,142 406.68,142 406,142 C406,140.68 406,139.36 406,138 C405.34,138 404.68,138 404,138 C404,136.68 404,135.36 404,134 C403.34,134 402.68,134 402,134 C402,132.68 402,131.36 402,130 C401.34,130 400.68,130 400,130 C400,126.7 400,123.4 400,120 C399.34,120 398.68,120 398,120 C398,118.02 398,116.04 398,114 C397.34,114 396.68,114 396,114 C396,112.68 396,111.36 396,110 C394.02,110 392.04,110 390,110 C390,131.78 390,153.56 390,176 C389.34,176 388.68,176 388,176 C388,176.66 388,177.32 388,178 C374.8,178 361.6,178 348,178 C348,177.34 348,176.68 348,176 C347.34,176 346.68,176 346,176 C346,139.7 346,103.4 346,66 C346.66,66 347.32,66 348,66 C348,62.04 348,58.08 348,54 C348.66,54 349.32,54 350,54 C350,52.02 350,50.04 350,48 C350.66,48 351.32,48 352,48 C352,46.68 352,45.36 352,44 C352.66,44 353.32,44 354,44 C354,42.68 354,41.36 354,40 C354.66,40 355.32,40 356,40 C356,39.34 356,38.68 356,38 C356.66,38 357.32,38 358,38 C358,36.68 358,35.36 358,34 C358.66,34 359.32,34 360,34 C360,33.34 360,32.68 360,32 C360.66,32 361.32,32 362,32 C362,31.34 362,30.68 362,30 C363.32,30 364.64,30 366,30 C366,29.34 366,28.68 366,28 C367.32,28 368.64,28 370,28 C370,27.34 370,26.68 370,26 C371.32,26 372.64,26 374,26 C374,25.34 374,24.68 374,24 Z" id="Path" fill="#FEFDFD"></path>
            <path d="M524,24 C540.5,24 557,24 574,24 C574,24.66 574,25.32 574,26 C577.96,26 581.92,26 586,26 C586,26.66 586,27.32 586,28 C587.32,28 588.64,28 590,28 C590,28.66 590,29.32 590,30 C591.98,30 593.96,30 596,30 C596,30.66 596,31.32 596,32 C597.98,32 599.96,32 602,32 C602,32.66 602,33.32 602,34 C603.32,34 604.64,34 606,34 C606,34.66 606,35.32 606,36 C607.32,36 608.64,36 610,36 C610,36.66 610,37.32 610,38 C610.66,38 611.32,38 612,38 C612,38.66 612,39.32 612,40 C613.32,40 614.64,40 616,40 C616,40.66 616,41.32 616,42 C616.66,42 617.32,42 618,42 C618,42.66 618,43.32 618,44 C618.66,44 619.32,44 620,44 C620,45.32 620,46.64 620,48 C620.66,48 621.32,48 622,48 C622,48.66 622,49.32 622,50 C622.66,50 623.32,50 624,50 C624,51.32 624,52.64 624,54 C624.66,54 625.32,54 626,54 C626,55.32 626,56.64 626,58 C626.66,58 627.32,58 628,58 C628,66.58 628,75.16 628,84 C627.34,84 626.68,84 626,84 C626,85.32 626,86.64 626,88 C625.34,88 624.68,88 624,88 C624,89.32 624,90.64 624,92 C623.34,92 622.68,92 622,92 C622,92.66 622,93.32 622,94 C621.34,94 620.68,94 620,94 C620,94.66 620,95.32 620,96 C620.66,96 621.32,96 622,96 C622,96.66 622,97.32 622,98 C622.66,98 623.32,98 624,98 C624,98.66 624,99.32 624,100 C624.66,100 625.32,100 626,100 C626,100.66 626,101.32 626,102 C626.66,102 627.32,102 628,102 C628,103.32 628,104.64 628,106 C628.66,106 629.32,106 630,106 C630,107.32 630,108.64 630,110 C630.66,110 631.32,110 632,110 C632,110.66 632,111.32 632,112 C632.66,112 633.32,112 634,112 C634,120.58 634,129.16 634,138 C633.34,138 632.68,138 632,138 C632,139.98 632,141.96 632,144 C631.34,144 630.68,144 630,144 C630,145.32 630,146.64 630,148 C629.34,148 628.68,148 628,148 C628,149.32 628,150.64 628,152 C627.34,152 626.68,152 626,152 C626,152.66 626,153.32 626,154 C625.34,154 624.68,154 624,154 C624,154.66 624,155.32 624,156 C623.34,156 622.68,156 622,156 C622,156.66 622,157.32 622,158 C621.34,158 620.68,158 620,158 C620,158.66 620,159.32 620,160 C619.34,160 618.68,160 618,160 C618,160.66 618,161.32 618,162 C617.34,162 616.68,162 616,162 C616,162.66 616,163.32 616,164 C614.68,164 613.36,164 612,164 C612,164.66 612,165.32 612,166 C610.68,166 609.36,166 608,166 C608,166.66 608,167.32 608,168 C606.68,168 605.36,168 604,168 C604,168.66 604,169.32 604,170 C602.68,170 601.36,170 600,170 C600,170.66 600,171.32 600,172 C598.02,172 596.04,172 594,172 C594,172.66 594,173.32 594,174 C592.02,174 590.04,174 588,174 C588,174.66 588,175.32 588,176 C583.38,176 578.76,176 574,176 C574,176.66 574,177.32 574,178 C557.5,178 541,178 524,178 C524,177.34 524,176.68 524,176 C523.34,176 522.68,176 522,176 C522,126.5 522,77 522,26 C522.66,26 523.32,26 524,26 C524,25.34 524,24.68 524,24 Z" id="Path" fill="#FEFDFD"></path>
            <path d="M214,26 C227.2,26 240.4,26 254,26 C254,26.66 254,27.32 254,28 C254.66,28 255.32,28 256,28 C256,34.6 256,41.2 256,48 C255.34,48 254.68,48 254,48 C254,64.5 254,81 254,98 C254.66,98 255.32,98 256,98 C256,101.3 256,104.6 256,108 C256.66,108 257.32,108 258,108 C258,111.3 258,114.6 258,118 C258.66,118 259.32,118 260,118 C260,119.32 260,120.64 260,122 C260.66,122 261.32,122 262,122 C262,122.66 262,123.32 262,124 C262.66,124 263.32,124 264,124 C264,124.66 264,125.32 264,126 C264.66,126 265.32,126 266,126 C266,126.66 266,127.32 266,128 C269.3,128 272.6,128 276,128 C276,127.34 276,126.68 276,126 C276.66,126 277.32,126 278,126 C278,124.68 278,123.36 278,122 C278.66,122 279.32,122 280,122 C280,120.68 280,119.36 280,118 C280.66,118 281.32,118 282,118 C282,116.02 282,114.04 282,112 C282.66,112 283.32,112 284,112 C284,110.02 284,108.04 284,106 C284.66,106 285.32,106 286,106 C286,99.4 286,92.8 286,86 C286.66,86 287.32,86 288,86 C288,66.86 288,47.72 288,28 C288.66,28 289.32,28 290,28 C290,27.34 290,26.68 290,26 C303.86,26 317.72,26 332,26 C332,26.66 332,27.32 332,28 C332.66,28 333.32,28 334,28 C334,28.66 334,29.32 334,30 C334.66,30 335.32,30 336,30 C336,54.42 336,78.84 336,104 C335.34,104 334.68,104 334,104 C334,106.64 334,109.28 334,112 C333.34,112 332.68,112 332,112 C332,115.3 332,118.6 332,122 C331.34,122 330.68,122 330,122 C330,123.32 330,124.64 330,126 C329.34,126 328.68,126 328,126 C328,128.64 328,131.28 328,134 C327.34,134 326.68,134 326,134 C326,135.32 326,136.64 326,138 C325.34,138 324.68,138 324,138 C324,139.32 324,140.64 324,142 C323.34,142 322.68,142 322,142 C322,143.32 322,144.64 322,146 C321.34,146 320.68,146 320,146 C320,147.32 320,148.64 320,150 C319.34,150 318.68,150 318,150 C318,151.32 318,152.64 318,154 C317.34,154 316.68,154 316,154 C316,154.66 316,155.32 316,156 C315.34,156 314.68,156 314,156 C314,157.32 314,158.64 314,160 C313.34,160 312.68,160 312,160 C312,160.66 312,161.32 312,162 C311.34,162 310.68,162 310,162 C310,162.66 310,163.32 310,164 C309.34,164 308.68,164 308,164 C308,164.66 308,165.32 308,166 C306.68,166 305.36,166 304,166 C304,166.66 304,167.32 304,168 C303.34,168 302.68,168 302,168 C302,168.66 302,169.32 302,170 C300.68,170 299.36,170 298,170 C298,170.66 298,171.32 298,172 C296.68,172 295.36,172 294,172 C294,172.66 294,173.32 294,174 C292.68,174 291.36,174 290,174 C290,174.66 290,175.32 290,176 C288.02,176 286.04,176 284,176 C284,176.66 284,177.32 284,178 C274.76,178 265.52,178 256,178 C256,177.34 256,176.68 256,176 C255.34,176 254.68,176 254,176 C254,175.34 254,174.68 254,174 C251.36,174 248.72,174 246,174 C246,173.34 246,172.68 246,172 C245.34,172 244.68,172 244,172 C244,171.34 244,170.68 244,170 C242.68,170 241.36,170 240,170 C240,169.34 240,168.68 240,168 C239.34,168 238.68,168 238,168 C238,167.34 238,166.68 238,166 C237.34,166 236.68,166 236,166 C236,165.34 236,164.68 236,164 C235.34,164 234.68,164 234,164 C234,163.34 234,162.68 234,162 C233.34,162 232.68,162 232,162 C232,161.34 232,160.68 232,160 C231.34,160 230.68,160 230,160 C230,159.34 230,158.68 230,158 C229.34,158 228.68,158 228,158 C228,157.34 228,156.68 228,156 C227.34,156 226.68,156 226,156 C226,154.68 226,153.36 226,152 C225.34,152 224.68,152 224,152 C224,150.68 224,149.36 224,148 C223.34,148 222.68,148 222,148 C222,146.68 222,145.36 222,144 C221.34,144 220.68,144 220,144 C220,142.68 220,141.36 220,140 C219.34,140 218.68,140 218,140 C218,138.68 218,137.36 218,136 C217.34,136 216.68,136 216,136 C216,132.7 216,129.4 216,126 C215.34,126 214.68,126 214,126 C214,124.02 214,122.04 214,120 C213.34,120 212.68,120 212,120 C212,114.72 212,109.44 212,104 C211.34,104 210.68,104 210,104 C210,80.24 210,56.48 210,32 C210.66,32 211.32,32 212,32 C212,30.68 212,29.36 212,28 C212.66,28 213.32,28 214,28 C214,27.34 214,26.68 214,26 Z" id="Path" fill="#FEFDFD"></path>
            <path d="M92,26 C101.9,26 111.8,26 122,26 C122,26.66 122,27.32 122,28 C122.66,28 123.32,28 124,28 C124,28.66 124,29.32 124,30 C124.66,30 125.32,30 126,30 C126,42.54 126,55.08 126,68 C126.66,68 127.32,68 128,68 C128,69.32 128,70.64 128,72 C128.66,72 129.32,72 130,72 C130,73.98 130,75.96 130,78 C130.66,78 131.32,78 132,78 C132,78.66 132,79.32 132,80 C132.66,80 133.32,80 134,80 C134,80.66 134,81.32 134,82 C137.3,82 140.6,82 144,82 C144,80.68 144,79.36 144,78 C144.66,78 145.32,78 146,78 C146,77.34 146,76.68 146,76 C146.66,76 147.32,76 148,76 C148,74.68 148,73.36 148,72 C148.66,72 149.32,72 150,72 C150,70.02 150,68.04 150,66 C150.66,66 151.32,66 152,66 C152,64.02 152,62.04 152,60 C152.66,60 153.32,60 154,60 C154,50.1 154,40.2 154,30 C154.66,30 155.32,30 156,30 C156,29.34 156,28.68 156,28 C156.66,28 157.32,28 158,28 C158,27.34 158,26.68 158,26 C169.22,26 180.44,26 192,26 C192,26.66 192,27.32 192,28 C192.66,28 193.32,28 194,28 C194,28.66 194,29.32 194,30 C194.66,30 195.32,30 196,30 C196,31.98 196,33.96 196,36 C196.66,36 197.32,36 198,36 C198,63.06 198,90.12 198,118 C197.34,118 196.68,118 196,118 C196,121.96 196,125.92 196,130 C195.34,130 194.68,130 194,130 C194,131.32 194,132.64 194,134 C193.34,134 192.68,134 192,134 C192,135.98 192,137.96 192,140 C191.34,140 190.68,140 190,140 C190,141.32 190,142.64 190,144 C189.34,144 188.68,144 188,144 C188,145.32 188,146.64 188,148 C187.34,148 186.68,148 186,148 C186,149.32 186,150.64 186,152 C185.34,152 184.68,152 184,152 C184,152.66 184,153.32 184,154 C183.34,154 182.68,154 182,154 C182,154.66 182,155.32 182,156 C181.34,156 180.68,156 180,156 C180,157.32 180,158.64 180,160 C179.34,160 178.68,160 178,160 C178,160.66 178,161.32 178,162 C177.34,162 176.68,162 176,162 C176,162.66 176,163.32 176,164 C175.34,164 174.68,164 174,164 C174,164.66 174,165.32 174,166 C172.68,166 171.36,166 170,166 C170,166.66 170,167.32 170,168 C169.34,168 168.68,168 168,168 C168,168.66 168,169.32 168,170 C166.68,170 165.36,170 164,170 C164,170.66 164,171.32 164,172 C162.68,172 161.36,172 160,172 C160,172.66 160,173.32 160,174 C158.68,174 157.36,174 156,174 C156,174.66 156,175.32 156,176 C152.7,176 149.4,176 146,176 C146,176.66 146,177.32 146,178 C136.76,178 127.52,178 118,178 C118,177.34 118,176.68 118,176 C116.02,176 114.04,176 112,176 C112,175.34 112,174.68 112,174 C110.02,174 108.04,174 106,174 C106,173.34 106,172.68 106,172 C104.68,172 103.36,172 102,172 C102,171.34 102,170.68 102,170 C100.02,170 98.04,170 96,170 C96,169.34 96,168.68 96,168 C94.68,168 93.36,168 92,168 C92,167.34 92,166.68 92,166 C91.34,166 90.68,166 90,166 C90,165.34 90,164.68 90,164 C89.34,164 88.68,164 88,164 C88,161.36 88,158.72 88,156 C88.66,156 89.32,156 90,156 C90,154.02 90,152.04 90,150 C90.66,150 91.32,150 92,150 C92,148.02 92,146.04 92,144 C92.66,144 93.32,144 94,144 C94,142.68 94,141.36 94,140 C94.66,140 95.32,140 96,140 C96,138.68 96,137.36 96,136 C96.66,136 97.32,136 98,136 C98,135.34 98,134.68 98,134 C98.66,134 99.32,134 100,134 C100,133.34 100,132.68 100,132 C101.98,132 103.96,132 106,132 C106,132.66 106,133.32 106,134 C107.32,134 108.64,134 110,134 C110,134.66 110,135.32 110,136 C112.64,136 115.28,136 118,136 C118,136.66 118,137.32 118,138 C119.32,138 120.64,138 122,138 C122,138.66 122,139.32 122,140 C126.62,140 131.24,140 136,140 C136,139.34 136,138.68 136,138 C137.98,138 139.96,138 142,138 C142,137.34 142,136.68 142,136 C143.32,136 144.64,136 146,136 C146,135.34 146,134.68 146,134 C146.66,134 147.32,134 148,134 C148,133.34 148,132.68 148,132 C148.66,132 149.32,132 150,132 C150,131.34 150,130.68 150,130 C150.66,130 151.32,130 152,130 C152,129.34 152,128.68 152,128 C152.66,128 153.32,128 154,128 C154,126.02 154,124.04 154,122 C152.02,122 150.04,122 148,122 C148,122.66 148,123.32 148,124 C140.74,124 133.48,124 126,124 C126,123.34 126,122.68 126,122 C123.36,122 120.72,122 118,122 C118,121.34 118,120.68 118,120 C116.68,120 115.36,120 114,120 C114,119.34 114,118.68 114,118 C112.68,118 111.36,118 110,118 C110,117.34 110,116.68 110,116 C109.34,116 108.68,116 108,116 C108,115.34 108,114.68 108,114 C107.34,114 106.68,114 106,114 C106,113.34 106,112.68 106,112 C105.34,112 104.68,112 104,112 C104,111.34 104,110.68 104,110 C103.34,110 102.68,110 102,110 C102,109.34 102,108.68 102,108 C101.34,108 100.68,108 100,108 C100,107.34 100,106.68 100,106 C99.34,106 98.68,106 98,106 C98,105.34 98,104.68 98,104 C97.34,104 96.68,104 96,104 C96,102.68 96,101.36 96,100 C95.34,100 94.68,100 94,100 C94,98.68 94,97.36 94,96 C93.34,96 92.68,96 92,96 C92,94.68 92,93.36 92,92 C91.34,92 90.68,92 90,92 C90,90.02 90,88.04 90,86 C89.34,86 88.68,86 88,86 C88,82.7 88,79.4 88,76 C87.34,76 86.68,76 86,76 C86,60.82 86,45.64 86,30 C86.66,30 87.32,30 88,30 C88,29.34 88,28.68 88,28 C89.32,28 90.64,28 92,28 C92,27.34 92,26.68 92,26 Z" id="Path" fill="#FEFCFC"></path>
            <path d="M774,24 C785.88,24 797.76,24 810,24 C810,24.66 810,25.32 810,26 C813.3,26 816.6,26 820,26 C820,26.66 820,27.32 820,28 C821.98,28 823.96,28 826,28 C826,28.66 826,29.32 826,30 C826.66,30 827.32,30 828,30 C828,30.66 828,31.32 828,32 C828.66,32 829.32,32 830,32 C830,34.64 830,37.28 830,40 C829.34,40 828.68,40 828,40 C828,43.3 828,46.6 828,50 C827.34,50 826.68,50 826,50 C826,52.64 826,55.28 826,58 C825.34,58 824.68,58 824,58 C824,59.98 824,61.96 824,64 C823.34,64 822.68,64 822,64 C822,64.66 822,65.32 822,66 C820.02,66 818.04,66 816,66 C816,65.34 816,64.68 816,64 C808.74,64 801.48,64 794,64 C794,64.66 794,65.32 794,66 C791.36,66 788.72,66 786,66 C786,66.66 786,67.32 786,68 C785.34,68 784.68,68 784,68 C784,68.66 784,69.32 784,70 C783.34,70 782.68,70 782,70 C782,71.98 782,73.96 782,76 C782.66,76 783.32,76 784,76 C784,76.66 784,77.32 784,78 C784.66,78 785.32,78 786,78 C786,78.66 786,79.32 786,80 C795.24,80 804.48,80 814,80 C814,80.66 814,81.32 814,82 C814.66,82 815.32,82 816,82 C816,82.66 816,83.32 816,84 C816.66,84 817.32,84 818,84 C818,93.9 818,103.8 818,114 C817.34,114 816.68,114 816,114 C816,115.32 816,116.64 816,118 C815.34,118 814.68,118 814,118 C814,118.66 814,119.32 814,120 C805.42,120 796.84,120 788,120 C788,120.66 788,121.32 788,122 C786.02,122 784.04,122 782,122 C782,122.66 782,123.32 782,124 C781.34,124 780.68,124 780,124 C780,124.66 780,125.32 780,126 C779.34,126 778.68,126 778,126 C778,127.98 778,129.96 778,132 C778.66,132 779.32,132 780,132 C780,132.66 780,133.32 780,134 C780.66,134 781.32,134 782,134 C782,134.66 782,135.32 782,136 C791.9,136 801.8,136 812,136 C812,135.34 812,134.68 812,134 C815.3,134 818.6,134 822,134 C822,134.66 822,135.32 822,136 C822.66,136 823.32,136 824,136 C824,136.66 824,137.32 824,138 C824.66,138 825.32,138 826,138 C826,139.32 826,140.64 826,142 C826.66,142 827.32,142 828,142 C828,145.96 828,149.92 828,154 C828.66,154 829.32,154 830,154 C830,159.94 830,165.88 830,172 C829.34,172 828.68,172 828,172 C828,172.66 828,173.32 828,174 C826.02,174 824.04,174 822,174 C822,174.66 822,175.32 822,176 C820.02,176 818.04,176 816,176 C816,176.66 816,177.32 816,178 C814.02,178 812.04,178 810,178 C810,178.66 810,179.32 810,180 C806.7,180 803.4,180 800,180 C800,180.66 800,181.32 800,182 C790.1,182 780.2,182 770,182 C770,181.34 770,180.68 770,180 C768.68,180 767.36,180 766,180 C766,179.34 766,178.68 766,178 C762.7,178 759.4,178 756,178 C756,177.34 756,176.68 756,176 C754.68,176 753.36,176 752,176 C752,175.34 752,174.68 752,174 C751.34,174 750.68,174 750,174 C750,173.34 750,172.68 750,172 C749.34,172 748.68,172 748,172 C748,171.34 748,170.68 748,170 C747.34,170 746.68,170 746,170 C746,169.34 746,168.68 746,168 C745.34,168 744.68,168 744,168 C744,167.34 744,166.68 744,166 C743.34,166 742.68,166 742,166 C742,165.34 742,164.68 742,164 C741.34,164 740.68,164 740,164 C740,162.68 740,161.36 740,160 C739.34,160 738.68,160 738,160 C738,158.02 738,156.04 738,154 C737.34,154 736.68,154 736,154 C736,152.02 736,150.04 736,148 C735.34,148 734.68,148 734,148 C734,141.4 734,134.8 734,128 C734.66,128 735.32,128 736,128 C736,126.02 736,124.04 736,122 C736.66,122 737.32,122 738,122 C738,119.36 738,116.72 738,114 C738.66,114 739.32,114 740,114 C740,112.68 740,111.36 740,110 C740.66,110 741.32,110 742,110 C742,109.34 742,108.68 742,108 C742.66,108 743.32,108 744,108 C744,107.34 744,106.68 744,106 C744.66,106 745.32,106 746,106 C746,104.68 746,103.36 746,102 C745.34,102 744.68,102 744,102 C744,100.68 744,99.36 744,98 C743.34,98 742.68,98 742,98 C742,97.34 742,96.68 742,96 C741.34,96 740.68,96 740,96 C740,94.68 740,93.36 740,92 C739.34,92 738.68,92 738,92 C738,90.68 738,89.36 738,88 C737.34,88 736.68,88 736,88 C736,85.36 736,82.72 736,80 C735.34,80 734.68,80 734,80 C734,72.74 734,65.48 734,58 C734.66,58 735.32,58 736,58 C736,56.02 736,54.04 736,52 C736.66,52 737.32,52 738,52 C738,50.68 738,49.36 738,48 C738.66,48 739.32,48 740,48 C740,47.34 740,46.68 740,46 C740.66,46 741.32,46 742,46 C742,44.68 742,43.36 742,42 C742.66,42 743.32,42 744,42 C744,41.34 744,40.68 744,40 C744.66,40 745.32,40 746,40 C746,39.34 746,38.68 746,38 C746.66,38 747.32,38 748,38 C748,37.34 748,36.68 748,36 C749.32,36 750.64,36 752,36 C752,35.34 752,34.68 752,34 C752.66,34 753.32,34 754,34 C754,33.34 754,32.68 754,32 C755.32,32 756.64,32 758,32 C758,31.34 758,30.68 758,30 C758.66,30 759.32,30 760,30 C760,29.34 760,28.68 760,28 C762.64,28 765.28,28 768,28 C768,27.34 768,26.68 768,26 C769.98,26 771.96,26 774,26 C774,25.34 774,24.68 774,24 Z" id="Path" fill="#FEFDFD"></path>
            <path d="M646,26 C659.86,26 673.72,26 688,26 C688,26.66 688,27.32 688,28 C689.32,28 690.64,28 692,28 C692,59.68 692,91.36 692,124 C701.9,124 711.8,124 722,124 C722,124.66 722,125.32 722,126 C722.66,126 723.32,126 724,126 C724,126.66 724,127.32 724,128 C724.66,128 725.32,128 726,128 C726,143.84 726,159.68 726,176 C725.34,176 724.68,176 724,176 C724,176.66 724,177.32 724,178 C698.26,178 672.52,178 646,178 C646,177.34 646,176.68 646,176 C645.34,176 644.68,176 644,176 C644,127.16 644,78.32 644,28 C644.66,28 645.32,28 646,28 C646,27.34 646,26.68 646,26 Z" id="Path" fill="#FEFEFE"></path>
            <path d="M562,118 C566.62,118 571.24,118 576,118 C576,118.66 576,119.32 576,120 C577.32,120 578.64,120 580,120 C580,120.66 580,121.32 580,122 C580.66,122 581.32,122 582,122 C582,122.66 582,123.32 582,124 C582.66,124 583.32,124 584,124 C584,124.66 584,125.32 584,126 C584.66,126 585.32,126 586,126 C586,129.3 586,132.6 586,136 C585.34,136 584.68,136 584,136 C584,136.66 584,137.32 584,138 C583.34,138 582.68,138 582,138 C582,139.32 582,140.64 582,142 C580.02,142 578.04,142 576,142 C576,142.66 576,143.32 576,144 C574.68,144 573.36,144 572,144 C572,144.66 572,145.32 572,146 C568.7,146 565.4,146 562,146 C562,136.76 562,127.52 562,118 Z" id="Path" fill="#FF5663"></path>
            <path d="M562,62 C566.62,62 571.24,62 576,62 C576,62.66 576,63.32 576,64 C577.98,64 579.96,64 582,64 C582,64.66 582,65.32 582,66 C582.66,66 583.32,66 584,66 C584,66.66 584,67.32 584,68 C584.66,68 585.32,68 586,68 C586,71.3 586,74.6 586,78 C585.34,78 584.68,78 584,78 C584,78.66 584,79.32 584,80 C582.68,80 581.36,80 580,80 C580,80.66 580,81.32 580,82 C578.68,82 577.36,82 576,82 C576,82.66 576,83.32 576,84 C571.38,84 566.76,84 562,84 C562,76.74 562,69.48 562,62 Z" id="Path" fill="#FF5966"></path>
            <path d="M690,28 C690.66,28 691.32,28 692,28 C692,59.68 692,91.36 692,124 C701.9,124 711.8,124 722,124 C722,124.66 722,125.32 722,126 C711.44,126 700.88,126 690,126 C690,93.66 690,61.32 690,28 Z" id="Path" fill="#FFAAB1"></path>
            <path d="M562,118 C562.66,118 563.32,118 564,118 C564,126.58 564,135.16 564,144 C566.64,144 569.28,144 572,144 C572,144.66 572,145.32 572,146 C568.7,146 565.4,146 562,146 C562,136.76 562,127.52 562,118 Z" id="Path" fill="#FF99A1"></path>
            <path d="M562,62 C566.62,62 571.24,62 576,62 C576,62.66 576,63.32 576,64 C572.04,64 568.08,64 564,64 C564,70.6 564,77.2 564,84 C563.34,84 562.68,84 562,84 C562,76.74 562,69.48 562,62 Z" id="Path" fill="#FF8A93"></path>
            <path d="M148,122 C149.98,122 151.96,122 154,122 C154,123.98 154,125.96 154,128 C153.34,128 152.68,128 152,128 C152,126.68 152,125.36 152,124 C150.68,124 149.36,124 148,124 C148,123.34 148,122.68 148,122 Z" id="Path" fill="#FF818B"></path>
        </g>
    </g>
</svg>